<svg xmlns="http://www.w3.org/2000/svg" width="25" height="24" viewBox="0 0 25 24" fill="none">
    <g clip-path="url(#clip0_1941_5821)">
        <path d="M10.5 5C10.5 4.46957 10.7107 3.96086 11.0858 3.58579C11.4609 3.21071 11.9696 3 12.5 3C13.0304 3 13.5391 3.21071 13.9142 3.58579C14.2893 3.96086 14.5 4.46957 14.5 5C15.6484 5.54303 16.6274 6.38833 17.3321 7.4453C18.0367 8.50227 18.4404 9.73107 18.5 11V14C18.5753 14.6217 18.7954 15.2171 19.1428 15.7381C19.4902 16.2592 19.9551 16.6914 20.5 17H4.5C5.04494 16.6914 5.50981 16.2592 5.85719 15.7381C6.20457 15.2171 6.42474 14.6217 6.5 14V11C6.55956 9.73107 6.9633 8.50227 7.66795 7.4453C8.3726 6.38833 9.35159 5.54303 10.5 5Z" fill="#282A75" stroke="#282A75" stroke-width="1.5" stroke-linecap="round" stroke-linejoin="round"/>
        <path d="M10.3787 20.4142C9.81607 20.0391 9.5 19.5304 9.5 19H15.5C15.5 19.5304 15.1839 20.0391 14.6213 20.4142C14.0587 20.7893 13.2956 21 12.5 21C11.7044 21 10.9413 20.7893 10.3787 20.4142Z" fill="#282A75"/>
    </g>
    <defs>
        <clipPath id="clip0_1941_5821">
            <rect width="24" height="24" fill="white" transform="translate(0.5)"/>
        </clipPath>
    </defs>
</svg>