<svg xmlns="http://www.w3.org/2000/svg" width="25" height="24" viewBox="0 0 25 24" fill="none">
    <path d="M21 10.8641V20C21 20.5523 20.5523 21 20 21H16C15.4477 21 15 20.5523 15 20V16.5C15 15.3954 14.1046 14.5 13 14.5H12C10.8954 14.5 10 15.3954 10 16.5V20C10 20.5523 9.55228 21 9 21H5C4.44772 21 4 20.5523 4 20V10.8641C4 10.3127 4.2277 9.7857 4.62927 9.40774L11.1293 3.2901C11.8994 2.5653 13.1006 2.5653 13.8707 3.2901L20.3707 9.40775C20.7723 9.7857 21 10.3127 21 10.8641Z" stroke="#757575" stroke-width="1.5" stroke-linecap="round"/>
</svg>