<svg width="243" height="243" viewBox="0 0 243 243" fill="none" xmlns="http://www.w3.org/2000/svg">
<g id="7070629_3293466 1">
<g id="Background_Complete">
<g id="Group">
<path id="Vector" d="M243 185.845H0V185.967H243V185.845Z" fill="#EBEBEB"/>
<path id="Vector_2" d="M153.414 189.155H141.041V189.277H153.414V189.155Z" fill="#EBEBEB"/>
<path id="Vector_3" d="M221.346 191.785H192.024V191.906H221.346V191.785Z" fill="#EBEBEB"/>
<path id="Vector_4" d="M138.409 189.216H108.115V189.337H138.409V189.216Z" fill="#EBEBEB"/>
<path id="Vector_5" d="M88.472 192.852H82.134V192.973H88.472V192.852Z" fill="#EBEBEB"/>
<path id="Vector_6" d="M123.485 192.852H94.6282V192.973H123.485V192.852Z" fill="#EBEBEB"/>
<path id="Vector_7" d="M44.1838 190.8H25.4951V190.921H44.1838V190.8Z" fill="#EBEBEB"/>
<path id="Vector_8" d="M115.189 164.171H21.3427C19.8132 164.171 18.5686 162.926 18.5686 161.397V29.4808C18.5686 27.9513 19.8132 26.7067 21.3427 26.7067H115.189C116.718 26.7067 117.962 27.9513 117.962 29.4808V161.397C117.962 162.926 116.718 164.171 115.189 164.171ZM21.3427 26.8287C19.8798 26.8287 18.6901 28.0184 18.6901 29.4812V161.397C18.6901 162.86 19.8798 164.05 21.3427 164.05H115.189C116.651 164.05 117.841 162.86 117.841 161.397V29.4808C117.841 28.0184 116.651 26.8282 115.189 26.8282L21.3427 26.8287Z" fill="#EBEBEB"/>
<path id="Vector_9" d="M220.309 164.171H126.463C124.934 164.171 123.689 162.926 123.689 161.397V29.4808C123.689 27.9513 124.934 26.7067 126.463 26.7067H220.309C221.839 26.7067 223.083 27.9513 223.083 29.4808V161.397C223.083 162.926 221.839 164.171 220.309 164.171ZM126.463 26.8287C125.001 26.8287 123.811 28.0184 123.811 29.4812V161.397C123.811 162.86 125.001 164.05 126.463 164.05H220.309C221.772 164.05 222.961 162.86 222.961 161.397V29.4808C222.961 28.0184 221.772 26.8282 220.309 26.8282L126.463 26.8287Z" fill="#EBEBEB"/>
</g>
<g id="Group_2">
<g id="Group_3">
<g id="Group_4">
<path id="Vector_10" d="M95.2375 143.694H62.9666L61.0076 121.095H93.2785L95.2375 143.694Z" fill="#E6E6E6"/>
<path id="Vector_11" d="M96.9089 143.694H64.6385L62.6794 121.095H94.9498L96.9089 143.694Z" fill="#F0F0F0"/>
<path id="Vector_12" d="M69.0494 138.841L67.9734 125.948H90.5384L91.6139 138.841H69.0494Z" fill="white"/>
</g>
<g id="Group_5">
<path id="Vector_13" d="M102.492 143.694H98.7061V185.845H102.492V143.694Z" fill="#E6E6E6"/>
<path id="Vector_14" d="M103.688 143.694H101.058V185.845H103.688V143.694Z" fill="#F0F0F0"/>
<path id="Vector_15" d="M67.0385 148.346H103.687V143.694H67.0385V148.346Z" fill="#F0F0F0"/>
<path id="Vector_16" d="M68.334 148.346H64.5476V185.844H68.334V148.346Z" fill="#E6E6E6"/>
<path id="Vector_17" d="M69.5292 148.346H66.8994V185.844H69.5292V148.346Z" fill="#F0F0F0"/>
<path id="Vector_18" d="M41.3819 148.346H37.5955V185.844H41.3819V148.346Z" fill="#E6E6E6"/>
<path id="Vector_19" d="M42.577 148.346H39.9473V185.844H42.577V148.346Z" fill="#F0F0F0"/>
<path id="Vector_20" d="M78.5313 148.346H74.7449V185.844H78.5313V148.346Z" fill="#E6E6E6"/>
<path id="Vector_21" d="M79.7264 148.346H77.0967V185.844H79.7264V148.346Z" fill="#F0F0F0"/>
<path id="Vector_22" d="M67.0383 143.694H37.5955V148.347H67.0383V143.694Z" fill="#E6E6E6"/>
</g>
</g>
<g id="Group_6">
<g id="Group_7">
<path id="Vector_23" d="M176.825 38.5952H62.9409V101.997H176.825V38.5952Z" fill="#E0E0E0"/>
<path id="Vector_24" d="M183.079 38.5952H63.5159V101.997H183.079V38.5952Z" fill="#F5F5F5"/>
<path id="Vector_25" d="M181.126 100.043V40.5482L65.4696 40.5482L65.4696 100.043L181.126 100.043Z" fill="white"/>
<path id="Vector_26" d="M112.298 100.043L134.134 40.5485H98.0972L76.2612 100.043H112.298Z" fill="#F5F5F5"/>
<path id="Vector_27" d="M146.986 100.043L168.822 40.5485H141.637L119.802 100.043H146.986Z" fill="#F5F5F5"/>
</g>
</g>
<g id="Group_8">
<g id="Group_9">
<path id="Vector_28" d="M212.922 125.292H203.241V185.845H212.922V125.292Z" fill="#E6E6E6"/>
<path id="Vector_29" d="M210.377 185.845H212.922V181.183H207.708L210.377 185.845Z" fill="#FAFAFA"/>
<path id="Vector_30" d="M123.665 125.292H113.984V185.845H123.665V125.292Z" fill="#E6E6E6"/>
<path id="Vector_31" d="M212.922 125.292H121.443V184.588H212.922V125.292Z" fill="#FAFAFA"/>
<path id="Vector_32" d="M211.19 144.424H123.175V127.677H211.19V144.424ZM123.661 143.938H210.704V128.163H123.661V143.938Z" fill="#E6E6E6"/>
<path id="Vector_33" d="M195.696 135.808H140.378C137.81 135.808 135.336 133.736 133.594 130.123L133.426 129.775H202.649L202.481 130.123C200.739 133.736 198.265 135.808 195.696 135.808ZM134.204 130.261C135.849 133.483 138.085 135.322 140.378 135.322H195.696C197.99 135.322 200.226 133.483 201.871 130.261H134.204Z" fill="#E6E6E6"/>
<path id="Vector_34" d="M123.989 185.845H121.443V181.183H126.657L123.989 185.845Z" fill="#FAFAFA"/>
<path id="Vector_35" d="M211.19 163.313H123.175V146.567H211.19V163.313ZM123.661 162.827H210.704V147.053H123.661V162.827Z" fill="#E6E6E6"/>
<path id="Vector_36" d="M195.696 154.697H140.378C137.81 154.697 135.336 152.625 133.594 149.012L133.426 148.663H202.649L202.481 149.012C200.739 152.625 198.265 154.697 195.696 154.697ZM134.204 149.149C135.849 152.372 138.085 154.211 140.378 154.211H195.696C197.99 154.211 200.226 152.372 201.871 149.149H134.204Z" fill="#E6E6E6"/>
<path id="Vector_37" d="M211.19 182.202H123.175V165.455H211.19V182.202ZM123.661 181.716H210.704V165.941H123.661V181.716Z" fill="#E6E6E6"/>
<path id="Vector_38" d="M195.696 173.586H140.378C137.81 173.586 135.336 171.514 133.594 167.901L133.426 167.552H202.649L202.481 167.901C200.739 171.514 198.265 173.586 195.696 173.586ZM134.204 168.038C135.849 171.261 138.085 173.1 140.378 173.1H195.696C197.99 173.1 200.226 171.261 201.871 168.038H134.204Z" fill="#E6E6E6"/>
</g>
</g>
<g id="Group_10">
<path id="Vector_39" d="M58.7977 133.302V134.477H58.0453L57.4242 143.694H48.2704L47.6498 134.477H46.8975V133.302H58.7977Z" fill="#E6E6E6"/>
<path id="Vector_40" d="M55.7849 110.425C55.0326 104.934 47.6226 103.366 38.2199 103.165C29.2722 102.974 26.4062 99.8074 26.4062 99.8074C26.4062 99.8074 26.4344 112.628 39.3275 117.269C51.5704 121.677 56.5387 115.925 55.7849 110.425Z" fill="#E6E6E6"/>
<path id="Vector_41" d="M51.2142 122.872C51.3712 120.614 54.9768 116.464 63.6495 118.351C69.9208 119.715 72.2522 116.464 72.2522 116.464C72.2522 116.464 71.6714 125.639 62.2401 128.398C53.2841 131.017 50.9377 126.844 51.2142 122.872Z" fill="#E6E6E6"/>
<path id="Vector_42" d="M53.1925 136.762C53.2873 136.762 53.3816 136.722 53.4482 136.644C54.0771 135.901 53.5624 134.121 52.8509 131.658C51.9372 128.497 50.8005 124.564 51.7632 121.707C52.3066 120.095 52.9792 118.673 53.629 117.298C54.9903 114.419 56.1659 111.933 55.1851 109.336C55.12 109.163 54.9271 109.076 54.7541 109.141C54.5815 109.206 54.4941 109.399 54.5592 109.572C55.4393 111.903 54.3735 114.157 53.0239 117.012C52.396 118.339 51.685 119.844 51.129 121.493C50.0992 124.548 51.2685 128.593 52.2079 131.844C52.7619 133.76 53.3345 135.742 52.9374 136.211C52.8183 136.352 52.8358 136.563 52.9768 136.683C53.0395 136.736 53.1162 136.762 53.1925 136.762Z" fill="#E6E6E6"/>
</g>
</g>
</g>
<g id="Shadow_1_">
<path id="_x3C_Path_x3E__191_" d="M121.5 207.795C173.542 207.795 215.73 205.331 215.73 202.292C215.73 199.252 173.542 196.789 121.5 196.789C69.4583 196.789 27.27 199.252 27.27 202.292C27.27 205.331 69.4583 207.795 121.5 207.795Z" fill="#F5F5F5"/>
</g>
<g id="Login">
<g id="Group_11">
<path id="Vector_43" d="M121.481 175.469H52.4686L48.6914 64.483H117.703L121.481 175.469Z" fill="#282A75"/>
<g id="Group_12">
<path id="Vector_44" d="M124.925 172.025H55.9129L52.1353 61.0387H121.147L124.925 172.025Z" fill="#282A75"/>
<path id="Vector_45" opacity="0.3" d="M124.925 172.025H55.9129L52.1353 61.0387H121.147L124.925 172.025Z" fill="white"/>
</g>
<g id="Group_13">
<path id="Vector_46" d="M101.808 106.716C109.198 99.1998 108.885 86.9087 101.108 79.263C93.3316 71.6173 81.0369 71.5124 73.6472 79.0286C66.2574 86.5448 66.571 98.836 74.3475 106.482C82.124 114.127 94.4187 114.232 101.808 106.716Z" fill="#282A75"/>
<path id="Vector_47" d="M103.746 92.8693C103.84 95.6361 103.227 98.2337 102.07 100.501C99.537 105.495 94.3606 108.891 88.2696 108.891C82.179 108.891 76.7713 105.495 73.8986 100.501C72.5873 98.2342 71.7971 95.6365 71.7028 92.8693C71.4015 84.0192 78.3294 76.8478 87.179 76.8478C96.0286 76.8478 103.444 84.0192 103.746 92.8693Z" fill="white"/>
<path id="Vector_48" opacity="0.6" d="M102.069 100.501C99.5366 105.495 94.3602 108.891 88.2692 108.891C82.1787 108.891 76.7709 105.495 73.8982 100.501C77.8401 97.8066 82.6268 96.2334 87.8381 96.2334C93.0505 96.2334 97.944 97.8061 102.069 100.501Z" fill="#282A75"/>
<path id="Vector_49" opacity="0.6" d="M92.7178 92.4776C95.4346 89.7143 95.3193 85.1956 92.4604 82.3847C89.6014 79.5738 85.0813 79.5352 82.3645 82.2985C79.6477 85.0618 79.763 89.5806 82.622 92.3914C85.481 95.2023 90.001 95.2409 92.7178 92.4776Z" fill="#282A75"/>
</g>
<path id="Vector_50" d="M111.063 131.833H67.0389L66.741 123.085H110.765L111.063 131.833Z" fill="white"/>
<path id="Vector_51" d="M111.595 147.469H67.5711L67.2732 138.721H111.298L111.595 147.469Z" fill="white"/>
<path id="Vector_52" d="M94.6037 139.923L83.9948 141.366C83.5589 141.425 83.2721 141.822 83.3548 142.244L84.7476 149.353C84.8307 149.778 85.2541 150.075 85.69 150.016L96.2989 148.574C96.7348 148.515 97.0221 148.121 96.9389 147.696L95.5461 140.587C95.4635 140.164 95.0397 139.864 94.6037 139.923ZM91.5555 147.125L89.6349 147.387L89.4414 145.092C89.0327 144.912 88.7367 144.549 88.6531 144.122C88.5171 143.427 88.9865 142.783 89.6995 142.686C90.41 142.589 91.1006 143.076 91.2372 143.771C91.3208 144.198 91.1784 144.62 90.8601 144.899L91.5555 147.125Z" fill="#282A75"/>
<path id="Vector_53" d="M93.557 139.542C93.1692 139.595 92.795 139.331 92.7211 138.954L92.5845 138.258C92.2093 136.342 90.3781 134.897 88.3957 135.069C86.2767 135.254 84.8562 137.125 85.2527 139.149L85.4092 139.948C85.4831 140.326 85.2289 140.675 84.8411 140.727C84.4533 140.78 84.079 140.516 84.0052 140.139L83.8725 139.46C83.3496 136.791 85.0297 134.225 87.7478 133.752C90.6055 133.254 93.4234 135.182 93.9682 137.963L94.1247 138.763C94.1985 139.14 93.9444 139.489 93.557 139.542Z" fill="#282A75"/>
<path id="Vector_54" d="M104.328 159.719H75.6717L75.4783 154.024H104.134L104.328 159.719Z" fill="#282A75"/>
<path id="Vector_55" d="M90.502 127.459C90.5322 128.342 89.8401 129.059 88.9566 129.059C88.073 129.059 87.3323 128.342 87.3022 127.459C87.2721 126.575 87.9641 125.859 88.8477 125.859C89.7312 125.859 90.4719 126.575 90.502 127.459Z" fill="#263238"/>
<path id="Vector_56" d="M83.6139 127.459C83.644 128.342 82.9519 129.059 82.0684 129.059C81.1848 129.059 80.4442 128.342 80.414 127.459C80.3839 126.575 81.076 125.859 81.9595 125.859C82.8431 125.859 83.5837 126.575 83.6139 127.459Z" fill="#263238"/>
<path id="Vector_57" d="M76.7259 127.459C76.7561 128.342 76.064 129.059 75.1804 129.059C74.2969 129.059 73.5562 128.342 73.5261 127.459C73.496 126.575 74.188 125.859 75.0716 125.859C75.9551 125.859 76.6958 126.575 76.7259 127.459Z" fill="#263238"/>
<path id="Vector_58" d="M97.39 127.459C97.4201 128.342 96.728 129.059 95.8445 129.059C94.9609 129.059 94.2203 128.342 94.1902 127.459C94.16 126.575 94.8521 125.859 95.7356 125.859C96.6192 125.859 97.3598 126.575 97.39 127.459Z" fill="#263238"/>
<path id="Vector_59" d="M104.278 127.459C104.308 128.342 103.616 129.059 102.733 129.059C101.849 129.059 101.108 128.342 101.078 127.459C101.048 126.575 101.74 125.859 102.624 125.859C103.507 125.859 104.249 126.575 104.278 127.459Z" fill="#263238"/>
</g>
</g>
<g id="Character_1_">
<g id="Group_14">
<path id="Vector_60" d="M162.28 84.7006C162.928 85.7382 163.464 86.734 164.02 87.7677C164.573 88.7912 165.074 89.8444 165.565 90.9053C166.532 93.0355 167.397 95.2332 168.043 97.5786C168.13 97.8663 168.196 98.1715 168.268 98.4704L168.374 98.9199L168.427 99.1445L168.49 99.5148C168.629 100.502 168.507 101.308 168.339 102.018C167.99 103.434 167.428 104.564 166.826 105.642C165.597 107.776 164.162 109.593 162.508 111.315L160.461 109.766C161.47 107.851 162.467 105.844 163.201 103.916C163.556 102.956 163.855 101.98 163.942 101.178C163.985 100.784 163.956 100.446 163.902 100.32L163.71 99.7257C163.63 99.4818 163.559 99.2393 163.463 98.9933C162.763 97.0323 161.872 95.0626 160.902 93.1205C159.946 91.1857 158.887 89.216 157.844 87.3774L162.28 84.7006Z" fill="#FF8B7B"/>
<path id="Vector_61" d="M160.98 109.071L158.749 110.255L161.314 113.258C161.314 113.258 162.916 112.175 162.988 110.521L160.98 109.071Z" fill="#FF8B7B"/>
<path id="Vector_62" d="M155.746 112.107L158.495 114.288L161.314 113.259L158.749 110.255L155.746 112.107Z" fill="#FF8B7B"/>
<path id="Vector_63" d="M146.359 68.8001C146.304 69.0703 146.117 69.2604 145.94 69.2244C145.764 69.1884 145.665 68.9406 145.72 68.6703C145.775 68.4001 145.962 68.2101 146.139 68.2461C146.316 68.282 146.414 68.5304 146.359 68.8001Z" fill="#263238"/>
<path id="Vector_64" d="M146.142 69.2656C146.142 69.2656 145.21 70.6993 144.381 71.3141C144.769 71.8575 145.623 71.8186 145.623 71.8186L146.142 69.2656Z" fill="#FF5652"/>
<path id="Vector_65" d="M145.266 78.799L145.287 75.6138L149.505 76.1236C149.505 76.1236 149.433 78.8627 147.077 79.668L145.266 78.799Z" fill="#FF8B7B"/>
<path id="Vector_66" d="M146.478 73.3198L149.449 74.1732L149.506 76.1236L145.287 75.6137L146.478 73.3198Z" fill="#FF8B7B"/>
<path id="Vector_67" opacity="0.2" d="M149.45 74.1732L146.48 73.3179L145.902 74.426C145.975 76.3068 147.122 77.8522 148.643 78.5472C149.469 77.4634 149.503 76.1221 149.503 76.1221L149.45 74.1732Z" fill="black"/>
<path id="Vector_68" d="M147.654 67.5009C147.693 67.5009 147.732 67.4868 147.763 67.4577C147.829 67.3969 147.833 67.2944 147.772 67.2288C147.164 66.5707 146.426 66.6879 146.394 66.6932C146.306 66.7083 146.247 66.7919 146.262 66.8798C146.277 66.9678 146.362 67.0266 146.448 67.0125C146.473 67.0086 147.049 66.9241 147.534 67.4489C147.567 67.4834 147.61 67.5009 147.654 67.5009Z" fill="#263238"/>
<path id="Vector_69" d="M153.863 73.7179C153.373 76.2189 153.077 79.6835 154.826 81.3525C154.826 81.3525 154.143 83.8894 149.496 83.8894C144.386 83.8894 147.038 81.663 147.038 81.663C149.162 81.004 149.143 78.5847 148.657 76.6412L153.863 73.7179Z" fill="#FF8B7B"/>
<path id="Vector_70" d="M155.783 83.0248C156.238 82.3804 156.22 80.3445 155.734 79.9854C154.95 79.4056 151.595 79.2724 147.076 80.3115C147.562 82.2837 146.52 83.3174 146.52 83.3174L155.783 83.0248Z" fill="#8E0051"/>
<path id="Vector_71" d="M170.972 198.403C170.629 198.477 170.287 198.497 170.121 198.356C170.052 198.297 169.982 198.184 170.043 197.98C170.075 197.873 170.145 197.793 170.252 197.742C170.713 197.522 171.774 197.954 171.819 197.973C171.849 197.985 171.868 198.013 171.869 198.045C171.87 198.077 171.852 198.106 171.823 198.12C171.661 198.199 171.317 198.329 170.972 198.403ZM170.416 197.857C170.381 197.865 170.35 197.875 170.322 197.888C170.257 197.919 170.217 197.964 170.199 198.026C170.155 198.172 170.209 198.218 170.227 198.233C170.411 198.39 171.094 198.245 171.574 198.053C171.248 197.938 170.72 197.791 170.416 197.857Z" fill="#407BFF"/>
<path id="Vector_72" d="M171.805 198.127C171.792 198.129 171.778 198.129 171.765 198.125C171.379 198.012 170.552 197.425 170.542 197.037C170.54 196.967 170.565 196.84 170.749 196.775C170.869 196.734 170.989 196.743 171.108 196.804C171.565 197.037 171.853 197.984 171.865 198.024C171.874 198.053 171.866 198.084 171.846 198.105C171.834 198.116 171.82 198.123 171.805 198.127ZM170.838 196.918C170.826 196.921 170.814 196.924 170.802 196.928C170.702 196.963 170.703 197.012 170.704 197.033C170.71 197.262 171.256 197.723 171.656 197.91C171.555 197.637 171.327 197.098 171.034 196.948C170.967 196.914 170.903 196.904 170.838 196.918Z" fill="#407BFF"/>
<path id="Vector_73" d="M145.734 198.977C145.295 198.977 144.872 198.916 144.73 198.719C144.68 198.65 144.641 198.532 144.737 198.365C144.79 198.271 144.876 198.208 144.993 198.176C145.562 198.021 146.757 198.701 146.807 198.731C146.837 198.748 146.852 198.781 146.847 198.814C146.841 198.847 146.816 198.874 146.783 198.88C146.564 198.924 146.143 198.977 145.734 198.977ZM145.192 198.314C145.135 198.314 145.082 198.319 145.035 198.332C144.961 198.353 144.909 198.389 144.877 198.445C144.82 198.546 144.841 198.596 144.861 198.624C145.02 198.845 145.884 198.85 146.52 198.76C146.203 198.598 145.591 198.314 145.192 198.314Z" fill="#407BFF"/>
<path id="Vector_74" d="M146.767 198.882C146.755 198.882 146.744 198.88 146.734 198.875C146.321 198.69 145.503 197.951 145.566 197.564C145.581 197.473 145.645 197.36 145.867 197.337C146.034 197.32 146.184 197.367 146.317 197.476C146.751 197.834 146.843 198.754 146.847 198.793C146.85 198.822 146.837 198.85 146.814 198.867C146.8 198.877 146.783 198.882 146.767 198.882ZM145.933 197.496C145.917 197.496 145.901 197.497 145.884 197.499C145.738 197.513 145.729 197.571 145.726 197.59C145.689 197.821 146.244 198.403 146.665 198.655C146.621 198.387 146.499 197.836 146.214 197.601C146.128 197.531 146.035 197.496 145.933 197.496Z" fill="#407BFF"/>
<path id="Vector_75" d="M150.526 198.801H147.107L146.767 190.885H150.185L150.526 198.801Z" fill="#FF8B7B"/>
<path id="Vector_76" d="M175.616 197.219L172.275 197.942L168.92 190.569L172.261 189.845L175.616 197.219Z" fill="#FF8B7B"/>
<path id="Vector_77" d="M171.953 197.607L175.707 196.794C175.843 196.764 175.982 196.834 176.041 196.961L177.344 199.788C177.479 200.081 177.3 200.425 176.983 200.488C175.668 200.749 175.015 200.81 173.364 201.167C172.348 201.387 170.056 201.946 168.653 202.249C167.282 202.546 166.768 201.205 167.315 200.956C169.767 199.835 170.791 198.849 171.455 197.929C171.575 197.764 171.754 197.65 171.953 197.607Z" fill="#263238"/>
<path id="Vector_78" d="M147.13 198.406H150.863C151.003 198.406 151.123 198.503 151.154 198.639L151.829 201.677C151.899 201.992 151.66 202.291 151.337 202.285C149.99 202.262 148.044 202.183 146.352 202.183C144.373 202.183 142.664 202.291 140.343 202.291C138.939 202.291 138.55 200.872 139.137 200.744C141.812 200.159 143.995 200.096 146.306 198.671C146.558 198.517 146.835 198.406 147.13 198.406Z" fill="#263238"/>
<g id="Group_15">
<path id="Vector_79" d="M160.947 82.1252C164.151 82.8596 166.793 91.039 166.793 91.039L160.359 95.9427C160.359 95.9427 157.998 93.7163 156.947 89.6252C155.845 85.3382 157.671 81.3744 160.947 82.1252Z" fill="#1E4F9E"/>
<path id="Vector_80" opacity="0.4" d="M160.947 82.1252C164.151 82.8596 166.793 91.039 166.793 91.039L160.359 95.9427C160.359 95.9427 157.998 93.7163 156.947 89.6252C155.845 85.3382 157.671 81.3744 160.947 82.1252Z" fill="#1E4F9E"/>
</g>
<path id="Vector_81" d="M144.1 91.8865C143.3 92.7491 142.503 93.5165 141.678 94.3063C141.268 94.699 140.849 95.0839 140.421 95.4615L139.775 96.0267L139.613 96.1672C139.534 96.2347 139.439 96.3149 139.336 96.3932C139.122 96.5511 138.888 96.7353 138.397 96.9477C138.137 97.0478 137.803 97.1805 137.215 97.1921C136.936 97.1965 136.557 97.1479 136.195 97.0109C135.825 96.8738 135.467 96.6367 135.222 96.3927C134.714 95.8819 134.56 95.4338 134.46 95.1339C134.367 94.8248 134.341 94.6042 134.322 94.4113C134.291 94.0341 134.31 93.779 134.331 93.5428C134.354 93.3095 134.386 93.1078 134.422 92.9173C134.565 92.1679 134.767 91.5633 134.986 90.9577C135.208 90.3585 135.454 89.7831 135.741 89.2013C136.05 88.5822 136.348 88.1331 136.645 87.6155C137.846 85.6083 139.255 83.7751 140.752 82.0474C142.282 80.3314 143.888 78.7625 145.734 77.325L147.523 79.1654C146.266 80.8465 145.031 82.6481 143.889 84.4249C142.749 86.2149 141.691 88.0374 140.78 89.8905C140.57 90.3483 140.311 90.8498 140.165 91.2328C139.995 91.6513 139.838 92.1008 139.709 92.5436C139.582 92.981 139.479 93.4368 139.433 93.7712C139.423 93.8519 139.417 93.9223 139.417 93.9632C139.416 94.0006 139.426 94.0215 139.421 93.918C139.416 93.8616 139.41 93.7775 139.358 93.5996C139.299 93.4305 139.206 93.1102 138.797 92.6962C138.6 92.5022 138.303 92.2991 137.996 92.1893C137.699 92.0731 137.389 92.0391 137.178 92.0401C136.728 92.0503 136.528 92.1421 136.394 92.1897C136.156 92.2928 136.151 92.3205 136.154 92.3098L136.34 92.1397L136.924 91.6051L138.086 90.5169C138.855 89.7923 139.629 89.0196 140.359 88.3022L144.1 91.8865Z" fill="#FF8B7B"/>
<path id="Vector_82" opacity="0.2" d="M158.201 88.1399C159.941 89.8618 160.509 92.9979 160.644 95.7244L160.36 95.9431C160.36 95.9431 157.996 93.7143 156.945 89.6241C156.88 89.3685 156.824 89.1124 156.777 88.8611L158.201 88.1399Z" fill="black"/>
<g id="Group_16">
<path id="Vector_83" d="M140.701 85.5529C140.002 89.2461 139.565 96.8296 141.594 111.848H159.877C160.003 109.041 158.24 95.3497 160.947 82.1252C160.947 82.1252 157.813 81.4963 154.826 81.3524C152.49 81.2397 149.108 81.1653 147.054 81.3529C146.197 81.4312 145.355 81.5551 144.605 81.6878C142.628 82.0372 141.074 83.5803 140.701 85.5529Z" fill="#1E4F9E"/>
<path id="Vector_84" opacity="0.4" d="M140.701 85.5529C140.002 89.2461 139.565 96.8296 141.594 111.848H159.877C160.003 109.041 158.24 95.3497 160.947 82.1252C160.947 82.1252 157.813 81.4963 154.826 81.3524C152.49 81.2397 149.108 81.1653 147.054 81.3529C146.197 81.4312 145.355 81.5551 144.605 81.6878C142.628 82.0372 141.074 83.5803 140.701 85.5529Z" fill="#1E4F9E"/>
</g>
<path id="Vector_85" opacity="0.2" d="M143.499 91.0112L140.195 90.22C140.092 92.2208 140.083 94.7009 140.232 97.7675C141.754 96.0364 143.694 93.3377 143.499 91.0112Z" fill="black"/>
<g id="Group_17">
<path id="Vector_86" opacity="0.2" d="M146.768 190.887L146.943 194.968H150.363L150.188 190.887H146.768Z" fill="black"/>
<path id="Vector_87" opacity="0.2" d="M172.263 189.847L168.92 190.571L170.651 194.371L173.994 193.648L172.263 189.847Z" fill="black"/>
</g>
<path id="Vector_88" d="M155.488 70.0593C154.61 73.3364 154.262 75.2989 152.24 76.6616C149.198 78.7111 145.411 76.3588 145.293 72.8854C145.186 69.7589 146.64 64.9252 150.156 64.2647C153.621 63.6144 156.366 66.7822 155.488 70.0593Z" fill="#FF8B7B"/>
<path id="Vector_89" d="M147.815 70.1851C147.653 69.7458 146.896 66.3593 147.606 65.4801C148.317 64.601 156.408 65.2333 157.605 66.4108C159.59 68.3641 158.213 70.1074 156.04 72.3566C154.406 74.0478 154.343 75.9544 153.519 76.2339C152.074 76.7242 149.834 76.2635 149.385 74.7214C148.936 73.1798 147.815 70.1851 147.815 70.1851Z" fill="#263238"/>
<path id="Vector_90" d="M156.625 62.5589C153.765 61.3409 148.403 62.6881 145.508 61.9902C145.404 63.4895 146.309 65.8938 149.204 66.5402C149.204 66.5402 153.314 67.3416 156.494 67.2123C159.674 67.083 159.054 63.5931 156.625 62.5589Z" fill="#263238"/>
<path id="Vector_91" d="M157.072 66.5144C157.072 66.5144 158.841 66.7136 160.096 65.9341C160.633 67.2264 157.693 67.5811 157.072 66.5144Z" fill="#263238"/>
<path id="Vector_92" d="M149.374 70.3198C149.321 71.2068 148.909 72.0413 148.414 72.5875C147.669 73.4084 146.891 72.8976 146.759 71.8974C146.64 70.9973 146.884 69.4854 147.795 69.0329C148.693 68.5863 149.434 69.3056 149.374 70.3198Z" fill="#FF8B7B"/>
<path id="Vector_93" d="M148.079 111.848C148.079 111.848 151.959 137.972 154.089 147.759C156.421 158.477 168.927 193.936 168.927 193.936L175.046 192.611C175.046 192.611 166.301 163.714 164.344 148.731C162.84 137.221 159.877 111.848 159.877 111.848H148.079Z" fill="#282A75"/>
<path id="Vector_94" d="M167.461 191.893C167.435 191.899 168.602 194.106 168.602 194.106L175.487 192.615L174.906 190.546L167.461 191.893Z" fill="#263238"/>
<path id="Vector_95" opacity="0.3" d="M150.531 121.156C155.017 122.036 154.542 138.764 154.003 147.367C152.709 141.286 150.815 129.583 149.522 121.277C149.819 121.128 150.154 121.082 150.531 121.156Z" fill="black"/>
<path id="Vector_96" d="M141.594 111.848C141.594 111.848 141.123 137.407 141.495 147.831C141.881 158.674 145.669 194.177 145.669 194.177H151.459C151.459 194.177 151.672 159.308 151.929 148.659C152.21 137.05 153.612 111.848 153.612 111.848H141.594Z" fill="#282A75"/>
<path id="Vector_97" d="M144.554 191.871C144.527 191.871 144.881 194.275 144.881 194.275H151.925L152.115 192.129L144.554 191.871Z" fill="#263238"/>
<g id="Group_18">
<path id="Vector_98" d="M147.866 86.6742C149.506 91.0914 139.875 96.2946 139.875 96.2946L135.707 90.935C135.707 90.935 138.488 85.3994 141.901 82.9038C146.117 79.8211 146.618 83.3116 147.866 86.6742Z" fill="#1E4F9E"/>
<path id="Vector_99" opacity="0.4" d="M147.866 86.6742C149.506 91.0914 139.875 96.2946 139.875 96.2946L135.707 90.935C135.707 90.935 138.488 85.3994 141.901 82.9038C146.117 79.8211 146.618 83.3116 147.866 86.6742Z" fill="#1E4F9E"/>
</g>
</g>
</g>
<g id="Thinking">
<g id="Group_19">
<path id="Vector_100" d="M185.591 53.1358C195.277 53.1358 203.13 48.1312 203.13 41.9578C203.13 35.7843 195.277 30.7798 185.591 30.7798C175.905 30.7798 168.053 35.7843 168.053 41.9578C168.053 48.1312 175.905 53.1358 185.591 53.1358Z" fill="#1E4F9E"/>
<path id="Vector_101" d="M179.259 47.5842C178.285 47.5842 177.334 47.2926 176.507 46.7293C175.399 45.9741 174.663 44.8291 174.434 43.5052C173.998 40.9746 175.678 38.4532 178.181 37.8846C180.241 37.4176 182.334 38.2958 183.441 40.0799L194.7 37.7563C195.612 37.5682 196.539 38.1121 196.763 38.9698C196.883 39.4257 196.812 39.8966 196.564 40.2961C196.316 40.6956 195.926 40.9673 195.466 41.0626L195.17 41.1238C195.082 41.1418 195.01 41.1952 194.967 41.274C194.924 41.3517 194.918 41.4436 194.95 41.5262L195.148 42.0423C195.283 42.3918 195.158 42.7849 194.849 42.9769C194.609 43.1266 194.446 43.3832 194.413 43.6641C194.373 44.0082 194.143 44.2731 193.828 44.3382L193.596 44.3858C193.282 44.45 192.966 44.2993 192.792 43.999C192.589 43.6481 192.186 43.4673 191.787 43.5499C191.387 43.6325 191.087 43.9586 191.038 44.3615C190.997 44.7061 190.767 44.9705 190.452 45.0351L190.225 45.0818C189.914 45.1464 189.595 44.9948 189.421 44.6949C189.279 44.45 189.026 44.2789 188.745 44.2371C188.386 44.1837 188.114 43.8726 188.099 43.4974L188.077 42.9448C188.073 42.8549 188.032 42.7752 187.962 42.7203C187.892 42.6649 187.807 42.645 187.716 42.6625L184.128 43.4031C183.824 45.4361 182.291 47.0637 180.264 47.4821C179.929 47.5497 179.593 47.5842 179.259 47.5842ZM178.288 38.3585C176.034 38.8707 174.52 41.1428 174.914 43.4226C175.119 44.6157 175.783 45.647 176.782 46.3279C177.78 47.0088 178.982 47.2493 180.166 47.0049C182.044 46.6171 183.452 45.0764 183.668 43.1713L183.688 42.9964L187.617 42.1852C187.844 42.1381 188.079 42.1935 188.261 42.3364C188.444 42.4788 188.553 42.6931 188.563 42.9244L188.585 43.477C188.59 43.617 188.69 43.737 188.816 43.7555C189.249 43.8201 189.623 44.0733 189.842 44.4505C189.895 44.5428 189.997 44.6317 190.128 44.605L190.355 44.5584C190.483 44.5316 190.543 44.4092 190.556 44.3032C190.628 43.6928 191.084 43.1985 191.69 43.0736C192.293 42.9492 192.905 43.2233 193.213 43.755C193.267 43.8473 193.368 43.9372 193.499 43.9095L193.731 43.8619C193.86 43.8352 193.919 43.7132 193.931 43.6077C193.981 43.1742 194.223 42.7942 194.593 42.5643C194.702 42.4967 194.746 42.3475 194.696 42.2173L194.497 41.7007C194.414 41.4844 194.43 41.2443 194.541 41.0412C194.653 40.8385 194.846 40.6951 195.073 40.6485L195.369 40.5873C195.697 40.5197 195.975 40.3253 196.152 40.041C196.329 39.7562 196.38 39.4199 196.294 39.0943C196.134 38.4829 195.462 38.096 194.799 38.234L183.198 40.6281L183.111 40.4755C182.137 38.775 180.202 37.9235 178.288 38.3585ZM179.266 45.7875C178.664 45.7875 178.075 45.6125 177.561 45.2742C176.866 44.8169 176.391 44.1171 176.223 43.303C176.055 42.4875 176.213 41.656 176.671 40.962C177.128 40.2684 177.828 39.7941 178.642 39.6259C179.458 39.4573 180.29 39.6157 180.983 40.0721C181.677 40.528 182.151 41.2288 182.319 42.0448C182.488 42.8588 182.329 43.6899 181.873 44.3839C181.417 45.0789 180.716 45.5542 179.9 45.7223C179.689 45.7661 179.476 45.7875 179.266 45.7875ZM179.28 40.0463C179.101 40.0463 178.92 40.0648 178.741 40.1017C178.053 40.2437 177.462 40.6441 177.077 41.2293C176.692 41.8149 176.558 42.5162 176.699 43.2048C176.841 43.8916 177.242 44.4821 177.828 44.8679C178.415 45.2533 179.116 45.388 179.803 45.246C180.491 45.1041 181.082 44.7027 181.468 44.1166C181.853 43.531 181.986 42.8301 181.844 42.1425C181.702 41.4538 181.302 40.8623 180.717 40.4774C180.284 40.1941 179.787 40.0463 179.28 40.0463Z" fill="white"/>
<path id="Vector_102" opacity="0.6" d="M171.313 59.6895C174.496 59.6895 177.077 58.0445 177.077 56.0153C177.077 53.9862 174.496 52.3412 171.313 52.3412C168.129 52.3412 165.548 53.9862 165.548 56.0153C165.548 58.0445 168.129 59.6895 171.313 59.6895Z" fill="#1E4F9E"/>
<path id="Vector_103" opacity="0.3" d="M162.144 61.197C163.451 61.197 164.51 60.5218 164.51 59.689C164.51 58.8561 163.451 58.1809 162.144 58.1809C160.837 58.1809 159.777 58.8561 159.777 59.689C159.777 60.5218 160.837 61.197 162.144 61.197Z" fill="#1E4F9E"/>
</g>
</g>
</g>
</svg>
