<svg width="52" height="52" viewBox="0 0 52 52" fill="none" xmlns="http://www.w3.org/2000/svg">
<path d="M10 0.5H42C47.2467 0.5 51.5 4.7533 51.5 10V42C51.5 47.2467 47.2467 51.5 42 51.5H10C4.7533 51.5 0.5 47.2467 0.5 42V10C0.500001 4.7533 4.7533 0.5 10 0.5Z" fill="#E8F6F7"/>
<path d="M10 0.5H42C47.2467 0.5 51.5 4.7533 51.5 10V42C51.5 47.2467 47.2467 51.5 42 51.5H10C4.7533 51.5 0.5 47.2467 0.5 42V10C0.500001 4.7533 4.7533 0.5 10 0.5Z" stroke="#282A75"/>
<path d="M10.6786 14.9185H41.3214C41.634 14.9185 41.9338 15.0343 42.1548 15.2404C42.3758 15.4466 42.5 15.7262 42.5 16.0177V32.5071H9.5V16.0177C9.5 15.7262 9.62417 15.4466 9.8452 15.2404C10.0662 15.0343 10.366 14.9185 10.6786 14.9185Z" fill="#FDFEFF"/>
<path d="M11.8571 14.9185H10.6786C10.366 14.9185 10.0662 15.0343 9.8452 15.2404C9.62417 15.4466 9.5 15.7262 9.5 16.0177V32.5071H10.6786V16.0177C10.6786 15.7262 10.8027 15.4466 11.0238 15.2404C11.2448 15.0343 11.5446 14.9185 11.8571 14.9185Z" fill="#282A75"/>
<path d="M37.1964 29.2091H14.8036C14.3347 29.2091 13.885 29.0354 13.5535 28.7261C13.222 28.4169 13.0357 27.9975 13.0357 27.5602V13.819C13.0357 13.5275 13.1599 13.2479 13.3809 13.0417C13.6019 12.8355 13.9017 12.7197 14.2143 12.7197H37.7857C38.0983 12.7197 38.3981 12.8355 38.6191 13.0417C38.8401 13.2479 38.9643 13.5275 38.9643 13.819V27.5602C38.9643 27.9975 38.778 28.4169 38.4465 28.7261C38.1149 29.0354 37.6653 29.2091 37.1964 29.2091Z" fill="#F7941D"/>
<path d="M14.8926 27.7591C15.2038 27.9859 15.5872 28.1093 15.9822 28.1098C16.1265 28.1095 16.2704 28.0931 16.4106 28.0609C19.2453 27.4033 22.2048 27.3668 25.0572 27.9543L25.6135 28.0697C25.7403 28.0965 25.87 28.1099 26 28.1098C26.1289 28.1102 26.2574 28.0969 26.3831 28.0702L26.9435 27.9543C29.7956 27.3663 32.755 27.4028 35.5895 28.0609C35.85 28.1215 36.1218 28.126 36.3844 28.074C36.647 28.022 36.8935 27.9149 37.1051 27.7608C37.3177 27.6072 37.4897 27.4101 37.6077 27.1847C37.7257 26.9594 37.7866 26.7117 37.7857 26.4609V12.7197H37.1965V26.4609C37.1971 26.6281 37.1565 26.7931 37.0778 26.9433C36.9992 27.0935 36.8845 27.2249 36.7427 27.3271C36.5357 27.478 36.2806 27.56 36.0179 27.5602C35.9215 27.5603 35.8255 27.5492 35.7321 27.5272C32.8089 26.8486 29.757 26.811 26.8156 27.4173L26.2558 27.5332C26.1719 27.5511 26.0861 27.5601 26 27.5602C25.9132 27.5602 25.8267 27.5513 25.7419 27.5338L25.1845 27.4178C22.243 26.8123 19.1912 26.8499 16.268 27.5277C16.0942 27.5683 15.9128 27.5713 15.7375 27.5366C15.5623 27.5019 15.3979 27.4305 15.2567 27.3276C15.1155 27.2248 15.0013 27.0932 14.9228 26.9431C14.8443 26.7929 14.8035 26.628 14.8036 26.4609V12.7197H14.2143V26.4609C14.2133 26.7113 14.2739 26.9585 14.3915 27.1836C14.5091 27.4087 14.6805 27.6056 14.8926 27.7591Z" fill="#C3D6DD"/>
<path d="M14.8036 26.4611C14.8029 26.628 14.8434 26.7929 14.9219 26.943C15.0003 27.0931 15.1147 27.2244 15.2562 27.3267C15.3974 27.4298 15.5619 27.5014 15.7372 27.5361C15.9125 27.5709 16.0941 27.5679 16.268 27.5274C19.1912 26.8495 22.243 26.8119 25.1845 27.4174L25.7419 27.5334C25.8266 27.5511 25.9132 27.5602 26 27.5603C26.0861 27.5605 26.1718 27.5516 26.2558 27.534L26.8156 27.418C29.757 26.8117 32.8089 26.8493 35.7321 27.5279C35.8255 27.5497 35.9215 27.5606 36.0179 27.5603C36.2806 27.5602 36.5357 27.4782 36.7427 27.3273C36.8845 27.225 36.9992 27.0937 37.0779 26.9435C37.1565 26.7933 37.1971 26.6282 37.1965 26.4611V11.6206H14.8036V26.4611Z" fill="#DFEAEF"/>
<path d="M36.0179 27.0106C35.9696 27.0106 35.9215 27.0051 35.8747 26.9941C32.8626 26.2962 29.7181 26.2586 26.6877 26.8842L26.1279 27.0002C26.0437 27.0178 25.9564 27.0178 25.8722 27.0002L25.3123 26.8842C22.282 26.2589 19.1375 26.2965 16.1254 26.9941C16.0385 27.0144 15.9478 27.016 15.8601 26.9987C15.7725 26.9814 15.6902 26.9457 15.6196 26.8943C15.549 26.8429 15.4919 26.7771 15.4526 26.702C15.4133 26.627 15.3929 26.5445 15.3929 26.461V11.6205C15.3929 11.498 15.4368 11.379 15.5176 11.2824C15.5984 11.1858 15.7115 11.1171 15.839 11.0874C19.0285 10.3468 22.3587 10.306 25.5681 10.9681L26 11.0577L26.432 10.9681C29.6413 10.306 32.9715 10.3468 36.1611 11.0874C36.2885 11.1171 36.4016 11.1858 36.4824 11.2824C36.5633 11.379 36.6072 11.498 36.6072 11.6205V26.461C36.6072 26.6067 36.5451 26.7465 36.4346 26.8496C36.3241 26.9527 36.1742 27.0106 36.0179 27.0106Z" fill="#FDFEFF"/>
<path d="M24.2321 14.9185H17.75V16.0177H24.2321V14.9185Z" fill="#D6E8F2"/>
<path d="M24.2321 17.1169H17.75V18.2162H24.2321V17.1169Z" fill="#D6E8F2"/>
<path d="M24.2321 19.3154H17.75V20.4147H24.2321V19.3154Z" fill="#D6E8F2"/>
<path d="M24.2321 21.5142H17.75V22.6135H24.2321V21.5142Z" fill="#D6E8F2"/>
<path d="M34.2499 14.9185H27.7678V16.0177H34.2499V14.9185Z" fill="#D6E8F2"/>
<path d="M34.2499 17.1169H27.7678V18.2162H34.2499V17.1169Z" fill="#D6E8F2"/>
<path d="M34.2499 19.3154H27.7678V20.4147H34.2499V19.3154Z" fill="#D6E8F2"/>
<path d="M34.2499 21.5142H27.7678V22.6135H34.2499V21.5142Z" fill="#D6E8F2"/>
<path d="M29.5357 40.2022H22.4643C22.308 40.2022 22.1581 40.1443 22.0476 40.0412C21.9371 39.9381 21.875 39.7983 21.875 39.6525V35.805C21.875 35.6592 21.9371 35.5194 22.0476 35.4164C22.1581 35.3133 22.308 35.2554 22.4643 35.2554H29.5357C29.692 35.2554 29.8419 35.3133 29.9524 35.4164C30.0629 35.5194 30.125 35.6592 30.125 35.805V39.6525C30.125 39.7983 30.0629 39.9381 29.9524 40.0412C29.8419 40.1443 29.692 40.2022 29.5357 40.2022Z" fill="#DFEAEF"/>
<path d="M23.0536 39.6525V35.805C23.0536 35.6592 23.1157 35.5194 23.2262 35.4164C23.3367 35.3133 23.4866 35.2554 23.6429 35.2554H22.4643C22.308 35.2554 22.1581 35.3133 22.0476 35.4164C21.9371 35.5194 21.875 35.6592 21.875 35.805V39.6525C21.875 39.7983 21.9371 39.9381 22.0476 40.0412C22.1581 40.1443 22.308 40.2022 22.4643 40.2022H23.6429C23.4866 40.2022 23.3367 40.1443 23.2262 40.0412C23.1157 39.9381 23.0536 39.7983 23.0536 39.6525Z" fill="#C3D6DD"/>
<path d="M35.4285 43.5H16.5714C16.4151 43.5 16.2652 43.442 16.1547 43.339C16.0442 43.2359 15.9821 43.0961 15.9821 42.9503C15.9834 41.9302 16.4184 40.9523 17.1917 40.231C17.965 39.5097 19.0135 39.1039 20.1071 39.1028H31.8928C32.9865 39.1039 34.035 39.5097 34.8083 40.231C35.5816 40.9523 36.0166 41.9302 36.0178 42.9503C36.0178 43.0961 35.9557 43.2359 35.8452 43.339C35.7347 43.442 35.5848 43.5 35.4285 43.5Z" fill="#282A75"/>
<path d="M17.1607 42.9503C17.1619 41.9302 17.5969 40.9523 18.3703 40.231C19.1436 39.5097 20.1921 39.1039 21.2857 39.1028H20.1071C19.0135 39.1039 17.965 39.5097 17.1917 40.231C16.4184 40.9523 15.9834 41.9302 15.9821 42.9503C15.9821 43.0961 16.0442 43.2359 16.1547 43.339C16.2652 43.442 16.4151 43.5 16.5714 43.5H17.75C17.5937 43.5 17.4438 43.442 17.3333 43.339C17.2228 43.2359 17.1607 43.0961 17.1607 42.9503Z" fill="#282A75"/>
<path d="M9.5 32.5071H42.5V34.7057C42.5 34.9972 42.3758 35.2768 42.1548 35.483C41.9338 35.6891 41.634 35.805 41.3214 35.805H10.6786C10.366 35.805 10.0662 35.6891 9.8452 35.483C9.62417 35.2768 9.5 34.9972 9.5 34.7057V32.5071Z" fill="#282A75"/>
<path d="M10.6786 34.7057V32.5071H9.5V34.7057C9.5 34.9972 9.62417 35.2768 9.8452 35.483C10.0662 35.6891 10.366 35.805 10.6786 35.805H11.8571C11.5446 35.805 11.2448 35.6891 11.0238 35.483C10.8027 35.2768 10.6786 34.9972 10.6786 34.7057Z" fill="#282A75"/>
<path d="M26.0001 34.7055C26.3255 34.7055 26.5894 34.4594 26.5894 34.1558C26.5894 33.8523 26.3255 33.6062 26.0001 33.6062C25.6746 33.6062 25.4108 33.8523 25.4108 34.1558C25.4108 34.4594 25.6746 34.7055 26.0001 34.7055Z" fill="#F7941D"/>
</svg>
