<svg width="52" height="52" viewBox="0 0 52 52" fill="none" xmlns="http://www.w3.org/2000/svg">
<path d="M10 51.5L42 51.5C47.2467 51.5 51.5 47.2467 51.5 42L51.5 10C51.5 4.7533 47.2467 0.5 42 0.5L10 0.5C4.7533 0.500001 0.5 4.7533 0.5 10L0.5 42C0.500001 47.2467 4.7533 51.5 10 51.5Z" fill="#E8F6F7"/>
<path d="M10 51.5L42 51.5C47.2467 51.5 51.5 47.2467 51.5 42L51.5 10C51.5 4.7533 47.2467 0.5 42 0.5L10 0.5C4.7533 0.500001 0.5 4.7533 0.5 10L0.5 42C0.500001 47.2467 4.7533 51.5 10 51.5Z" stroke="#282A75"/>
<path d="M44.125 41.0001C39.125 41.0001 35.0165 37.4232 32.7471 33.5002H19.2529C16.9835 37.4232 12.875 41.0001 7.875 41.0001L44.125 41.0001Z" fill="#E4EFF8"/>
<path d="M24.6877 33.5C24.4016 36.4832 23.0919 39.062 21.1172 41H32.1328C30.1581 39.062 28.8484 36.4832 28.5623 33.5H24.6877Z" fill="#C4DCF0"/>
<path d="M32.2622 33.5C32.2622 39.75 17.0463 40.5154 11.4567 40.5154C10.2722 40.8305 9.21275 41 7.88354 41L44.1165 41C39.1165 41 35.0162 37.423 32.7468 33.5H32.2622Z" fill="#C4DCF0"/>
<path d="M38.5 23.5C38.5 30.4036 32.9036 36 26 36C19.0964 36 13.5 30.4036 13.5 23.5C13.5 16.5964 19.0964 11 26 11C32.9036 11 38.5 16.5964 38.5 23.5Z" fill="#282A75"/>
<path d="M34.7927 14.6279L26.3638 23.0569C25.7725 23.6477 26.6587 24.5339 27.25 23.9431L35.6375 15.5557C35.3716 15.2325 35.0897 14.9228 34.7927 14.6279Z" fill="#282A75"/>
<path d="M34.1274 14.009C36.1342 16.2859 37.2441 19.215 37.25 22.25C37.25 29.1536 31.6536 34.75 24.75 34.75C21.7687 34.7483 18.8862 33.6811 16.6226 31.741C18.9911 34.4423 22.4074 35.9939 26 36C32.9036 36 38.5 30.4036 38.5 23.5C38.4982 19.8497 36.9009 16.3825 34.1274 14.009Z" fill="#297478"/>
<path d="M38.042 7.25169C37.8919 7.26338 37.7509 7.32892 37.6452 7.43623L34.5541 10.5274C34.4154 10.6668 34.3505 10.8634 34.3788 11.058L34.8171 14.1538C34.8563 14.4289 35.0725 14.6451 35.3476 14.6843L38.4434 15.1226C38.638 15.1509 38.8345 15.0859 38.974 14.9473L42.0651 11.8515C42.4307 11.4852 42.2183 10.8587 41.7053 10.7904L39.0986 10.449L38.7064 7.78687C38.66 7.46159 38.3697 7.22773 38.042 7.25169Z" fill="#F7941D"/>
<path d="M26.625 26.625L21.625 32.25H24.75C24.75 33.4607 24.5753 34.6099 24.2678 35.6936L28.7979 35.6851C28.8504 35.6731 28.9006 35.6551 28.9529 35.6424C28.664 34.6999 28.5 34.0477 28.5 32.875H32.25L26.625 26.625Z" fill="#297478"/>
<path d="M34.75 23.5C34.75 28.3325 30.8325 32.25 26 32.25C21.1675 32.25 17.25 28.3325 17.25 23.5C17.25 18.6675 21.1675 14.75 26 14.75C30.8325 14.75 34.75 18.6675 34.75 23.5Z" fill="#E4EFF8"/>
<path d="M31.531 16.7275C32.8029 18.2872 33.4983 20.2375 33.5 22.25C33.5 27.0825 29.5825 31 24.75 31C22.7335 30.9978 20.7797 30.2993 19.219 29.0225C20.8793 31.0629 23.3694 32.2482 26 32.25C30.8325 32.25 34.75 28.3325 34.75 23.5C34.7477 20.8738 33.566 18.3876 31.531 16.7275Z" fill="#C4DCF0"/>
<path d="M26.625 26.625L22.3452 31.4395C23.4907 31.9701 24.7375 32.2466 26 32.25C27.5778 32.2467 29.2145 31.8169 30.568 31.0061L26.625 26.625Z" fill="#C4DCF0"/>
<path d="M31 23.5C31 26.2614 28.7614 28.5 26 28.5C23.2386 28.5 21 26.2614 21 23.5C21 20.7386 23.2386 18.5 26 18.5C28.7614 18.5 31 20.7386 31 23.5Z" fill="#282A75"/>
<path d="M32.1426 17.2781L26.3638 23.0569C25.7725 23.6477 26.6587 24.5339 27.25 23.9431L32.9702 18.2229C32.7173 17.8885 32.4407 17.5728 32.1426 17.2781Z" fill="#C4DCF0"/>
<path d="M28.843 19.3875C29.4315 20.2262 29.7481 21.2254 29.75 22.25C29.75 25.0114 27.5114 27.25 24.75 27.25C23.7342 27.2499 22.7425 26.9403 21.907 26.3625C22.8409 27.7001 24.3687 28.4979 26 28.5C28.7614 28.5 31 26.2614 31 23.5C30.9998 21.8582 30.1936 20.321 28.843 19.3875Z" fill="#297478"/>
<path d="M11 44.75C18.2487 44.75 24.125 39.4987 24.125 32.25L21 32.25L26 26.625L31 32.25L27.875 32.25C27.875 39.4987 33.7513 44.75 41 44.75H11Z" fill="#F7941D"/>
<path d="M27.0852 27.8457C27.0852 41 24.75 44.6421 11 44.75H41C33.7513 44.75 27.875 39.4988 27.875 32.25H31L27.0852 27.8457Z" fill="#D5731F"/>
<path d="M29.4924 19.9282L26.3638 23.0569C25.7725 23.6477 26.6587 24.5339 27.25 23.9431L30.2761 20.917C30.0577 20.5556 29.7944 20.2234 29.4924 19.9282Z" fill="#3588CB"/>
<path d="M39.0872 10.3701L34.9673 14.4778C35.0658 14.5893 35.2008 14.662 35.3481 14.6829L36.3894 14.8306L40.5886 10.6423L39.0981 10.447L39.0872 10.3701Z" fill="#D4731F"/>
<path d="M39.5616 9.33154C39.3995 9.33652 39.2456 9.40435 39.1325 9.5207L25.5574 23.0568C24.966 23.6465 25.8518 24.5323 26.4432 23.9426L40.0184 10.4065C40.432 10.0085 40.1352 9.31013 39.5616 9.33154Z" fill="#E4EFF8"/>
</svg>
