<svg width="24" height="24" viewBox="0 0 24 24" fill="none" xmlns="http://www.w3.org/2000/svg">
<path d="M15.7678 10.5938C15.7678 10.1623 15.4181 9.8125 14.9866 9.8125H6.9397C6.50821 9.8125 6.15845 10.1623 6.15845 10.5938C6.15845 11.0252 6.50821 11.375 6.9397 11.375H14.9866C15.4181 11.375 15.7678 11.0252 15.7678 10.5938ZM6.9397 12.9375C6.50821 12.9375 6.15845 13.2873 6.15845 13.7188C6.15845 14.1502 6.50821 14.5 6.9397 14.5H11.8268C12.2583 14.5 12.6081 14.1502 12.6081 13.7188C12.6081 13.2873 12.2583 12.9375 11.8268 12.9375H6.9397Z" fill="#282A75"/>
<path d="M8.77569 20.4375H6.16284C5.30128 20.4375 4.60034 19.7366 4.60034 18.875V5.125C4.60034 4.26344 5.30128 3.5625 6.16284 3.5625H15.7679C16.6294 3.5625 17.3304 4.26344 17.3304 5.125V9.92969C17.3304 10.3612 17.6801 10.7109 18.1116 10.7109C18.5431 10.7109 18.8929 10.3612 18.8929 9.92969V5.125C18.8929 3.40188 17.491 2 15.7679 2H6.16284C4.43972 2 3.03784 3.40188 3.03784 5.125V18.875C3.03784 20.5981 4.43972 22 6.16284 22H8.77569C9.20718 22 9.55694 21.6502 9.55694 21.2188C9.55694 20.7873 9.20718 20.4375 8.77569 20.4375Z" fill="#282A75"/>
<path d="M20.2766 13.3114C19.3628 12.3976 17.8759 12.3975 16.9627 13.3108L12.6735 17.5905C12.5824 17.6814 12.5152 17.7933 12.4778 17.9164L11.5437 20.9916C11.503 21.1255 11.4991 21.2678 11.5322 21.4037C11.5653 21.5396 11.6343 21.6642 11.732 21.7643C11.8297 21.8644 11.9525 21.9365 12.0875 21.9729C12.2226 22.0094 12.365 22.0089 12.4998 21.9716L15.6531 21.0981C15.7829 21.0622 15.9012 20.9933 15.9965 20.8982L20.2767 16.626C21.1905 15.7122 21.1905 14.2253 20.2766 13.3114ZM15.038 19.6472L13.4516 20.0866L13.9159 18.5582L16.81 15.6705L17.915 16.7755L15.038 19.6472ZM19.1724 15.5207L19.021 15.6718L17.9161 14.5669L18.067 14.4163C18.3716 14.1117 18.8672 14.1117 19.1718 14.4163C19.4764 14.7209 19.4764 15.2166 19.1724 15.5207ZM14.9866 6.6875H6.9397C6.50821 6.6875 6.15845 7.03727 6.15845 7.46875C6.15845 7.90023 6.50821 8.25 6.9397 8.25H14.9866C15.4181 8.25 15.7678 7.90023 15.7678 7.46875C15.7678 7.03727 15.4181 6.6875 14.9866 6.6875Z" fill="#282A75"/>
</svg>
