<svg width="24" height="24" viewBox="0 0 24 24" fill="none" xmlns="http://www.w3.org/2000/svg">
<g clip-path="url(#clip0_2178_6000)">
<path d="M13.3619 10.271H17.9012C18.2071 10.271 18.4551 10.023 18.4551 9.7171C18.4551 9.41119 18.2071 9.16318 17.9012 9.16318H13.3619C13.0559 9.16318 12.808 9.4112 12.808 9.7171C12.808 10.023 13.0559 10.271 13.3619 10.271Z" fill="#282A75" stroke="#282A75" stroke-width="0.2"/>
<path d="M13.3619 12.0864H15.1775C15.4835 12.0864 15.7315 11.8384 15.7315 11.5325C15.7315 11.2266 15.4834 10.9786 15.1775 10.9786H13.3619C13.0559 10.9786 12.808 11.2266 12.808 11.5325C12.808 11.8384 13.0559 12.0864 13.3619 12.0864Z" fill="#282A75" stroke="#282A75" stroke-width="0.2"/>
<path d="M16.0855 8.4551H13.3619C13.0559 8.4551 12.8079 8.20712 12.808 7.90118L16.0855 8.4551ZM16.0855 8.4551C16.3914 8.4551 16.6394 8.20709 16.6394 7.90118M16.0855 8.4551L16.6394 7.90118M16.6394 7.90118C16.6394 7.59523 16.3913 7.34727 16.0855 7.34727M16.6394 7.90118L16.0855 7.34727M16.0855 7.34727H13.3619M16.0855 7.34727H13.3619M13.3619 7.34727C13.0559 7.34727 12.808 7.59527 12.808 7.90115L13.3619 7.34727Z" fill="#282A75" stroke="#282A75" stroke-width="0.2"/>
<path d="M9.60962 21.9669L9.60974 21.9668C9.63017 21.9492 9.64949 21.9301 9.6674 21.9095L11.9999 19.577L14.3279 21.905C14.5273 22.1345 14.875 22.1604 15.1063 21.9623L15.1063 21.9623C15.3385 21.7633 15.3658 21.4136 15.1667 21.1813L15.1666 21.1812C15.149 21.1607 15.13 21.1414 15.1094 21.1235L12.5538 18.568V17.5338H20.1707C20.7272 17.5338 21.1785 17.0825 21.1785 16.5258V5.72655C21.6882 5.67635 22.0864 5.24646 22.0864 4.72358V3.81571C22.0864 3.25908 21.6351 2.80788 21.0786 2.80788H13.0029C12.9527 2.2982 12.5228 1.9 11.9999 1.9C11.4771 1.9 11.0472 2.2982 10.997 2.80788H2.9213C2.36468 2.80788 1.91343 3.25912 1.91343 3.81574V4.72362C1.91343 5.24649 2.31162 5.67639 2.8213 5.72659V16.5258C2.8213 17.0825 3.27255 17.5338 3.82917 17.5338H11.446V18.568L8.88593 21.128C8.6564 21.3275 8.63042 21.6751 8.82858 21.9065C9.02756 22.1388 9.37726 22.1659 9.60962 21.9669ZM9.54457 21.8909C9.56231 21.8757 9.57889 21.8592 9.59407 21.8414L9.54457 21.8909ZM20.0707 16.4258H3.92917V5.73145H20.0707V16.4258ZM20.9786 4.62358H3.0213V3.91571H20.9786V4.62358Z" fill="#282A75" stroke="#282A75" stroke-width="0.2"/>
<path d="M13.3619 13.9024H17.9012C18.2071 13.9024 18.4551 13.6544 18.4551 13.3484C18.4551 13.0426 18.2071 12.7945 17.9012 12.7945H13.3619C13.0559 12.7945 12.808 13.0426 12.808 13.3484C12.808 13.6544 13.0559 13.9024 13.3619 13.9024Z" fill="#282A75" stroke="#282A75" stroke-width="0.2"/>
<path d="M6.55265 13.9023H10.1841C10.7407 13.9023 11.192 13.4511 11.192 12.8944V8.35514C11.192 7.79852 10.7407 7.34727 10.1841 7.34727H6.55265C5.99603 7.34727 5.54478 7.79852 5.54478 8.35514V12.8945C5.54478 13.4511 5.99603 13.9023 6.55265 13.9023ZM6.65265 8.45514H10.0841V12.7945H6.65265V8.45514Z" fill="#282A75" stroke="#282A75" stroke-width="0.2"/>
</g>
<defs>
<clipPath id="clip0_2178_6000">
<rect width="22" height="22" fill="white" transform="translate(1 1)"/>
</clipPath>
</defs>
</svg>
