<svg width="24" height="24" viewBox="0 0 24 24" fill="none" xmlns="http://www.w3.org/2000/svg">
<path d="M20.6589 9.5C20.6587 9.28344 20.5819 9.0701 20.4226 8.91078L13.7559 2.24411C13.5966 2.08427 13.3833 2.00672 13.1667 2.00672V2H8.16667C5.86932 2 4 3.86932 4 6.16667V17.8333C4 20.1307 5.86932 22 8.16667 22H16.5C18.7973 22 20.6667 20.1307 20.6667 17.8333V9.5H20.6589ZM14 4.84505L17.8216 8.66667H16.5C15.1214 8.66667 14 7.54526 14 6.16667V4.84505ZM16.5 20.3333H8.16667C6.78807 20.3333 5.66667 19.2119 5.66667 17.8333V6.16667C5.66667 4.78807 6.78807 3.66667 8.16667 3.66667H12.3333V6.16667C12.3333 8.46401 14.2027 10.3333 16.5 10.3333H19V17.8333C19 19.2119 17.8786 20.3333 16.5 20.3333Z" fill="#282A75"/>
<path d="M11.4375 11.9202L10.5231 12.8351L10.523 12.8351C10.4175 12.9407 10.2743 13 10.125 13C9.97571 13 9.83254 12.9407 9.72697 12.8351C9.62141 12.7295 9.56211 12.5864 9.56211 12.4371C9.56211 12.2878 9.62141 12.1446 9.72697 12.0391L11.6017 10.1643C11.6018 10.1643 11.6018 10.1642 11.6018 10.1642L11.602 10.1641L11.7787 10.3408C11.8078 10.3117 11.8423 10.2886 11.8802 10.2729C11.9182 10.2571 11.9589 10.249 12 10.249C12.0411 10.249 12.0818 10.2571 12.1198 10.2729C12.1577 10.2886 12.1922 10.3117 12.2213 10.3408L11.4375 11.9202ZM11.4375 11.9202V14.9371C11.4375 15.0863 11.4968 15.2293 11.6023 15.3348C11.7077 15.4403 11.8508 15.4996 12 15.4996C12.1492 15.4996 12.2923 15.4403 12.3977 15.3348C12.5032 15.2293 12.5625 15.0863 12.5625 14.9371V11.9202L13.4769 12.8351L13.477 12.8351C13.5292 12.8874 13.5913 12.9288 13.6596 12.9571C13.7279 12.9854 13.8011 13 13.875 13C13.9489 13 14.0221 12.9854 14.0904 12.9571C14.1587 12.9288 14.2208 12.8874 14.273 12.8351C14.3253 12.7828 14.3668 12.7208 14.395 12.6525C14.4233 12.5842 14.4379 12.511 14.4379 12.4371C14.4379 12.3632 14.4233 12.29 14.395 12.2217C14.3668 12.1534 14.3253 12.0913 14.273 12.0391L12.3983 10.1643M11.4375 11.9202L12.3983 10.1643M12.3983 10.1643C12.3982 10.1642 12.3981 10.1642 12.3981 10.1641C12.3981 10.1641 12.398 10.1641 12.398 10.1641L12.3983 10.1643ZM7.53975 17.4143C7.43426 17.5198 7.375 17.6629 7.375 17.8121C7.375 17.9613 7.43426 18.1043 7.53975 18.2098C7.64524 18.3153 7.78832 18.3746 7.9375 18.3746H16.0625C16.2117 18.3746 16.3548 18.3153 16.4602 18.2098C16.5657 18.1043 16.625 17.9613 16.625 17.8121C16.625 17.6629 16.5657 17.5198 16.4602 17.4143C16.3548 17.3088 16.2117 17.2496 16.0625 17.2496H7.9375C7.78832 17.2496 7.64524 17.3088 7.53975 17.4143Z" fill="#282A75" stroke="#282A75" stroke-width="0.5"/>
</svg>
