<svg width="24" height="24" viewBox="0 0 24 24" fill="none" xmlns="http://www.w3.org/2000/svg">
<path d="M3.94727 9.15771H20.0525M3.94727 14.8419H20.0525" stroke="#282A75" stroke-width="1.5"/>
<circle cx="12" cy="12" r="8.25" stroke="#282A75" stroke-width="1.5"/>
<path d="M14.5659 12C14.5659 14.4204 14.2032 16.5786 13.641 18.1047C13.3588 18.8707 13.0406 19.438 12.7252 19.8001C12.4083 20.1639 12.1611 20.25 12.0001 20.25C11.8391 20.25 11.5919 20.1639 11.275 19.8001C10.9596 19.438 10.6415 18.8707 10.3593 18.1047C9.79702 16.5786 9.43433 14.4204 9.43433 12C9.43433 9.57958 9.79702 7.42138 10.3593 5.89532C10.6415 5.12934 10.9596 4.56196 11.275 4.19988C11.5919 3.83605 11.8391 3.75 12.0001 3.75C12.1611 3.75 12.4083 3.83605 12.7252 4.19988C13.0406 4.56196 13.3588 5.12934 13.641 5.89532C14.2032 7.42138 14.5659 9.57958 14.5659 12Z" stroke="#282A75" stroke-width="1.5"/>
</svg>
