<svg width="209" height="169" viewBox="0 0 209 169" fill="none" xmlns="http://www.w3.org/2000/svg">
<path d="M25.1687 42.5684L178.581 28.8849C184.241 28.3801 188.844 33.3738 187.879 38.9739L173.382 123.157C172.653 127.388 168.934 130.445 164.643 130.34L37.777 127.256C33.6649 127.156 30.1916 124.176 29.4678 120.127L17.418 52.7115C16.5245 47.7107 20.1092 43.0196 25.1687 42.5684Z" fill="#F2D23B"/>
<path d="M31.2181 123.989C32.7734 125.942 35.1417 127.192 37.7765 127.257L164.642 130.341C168.934 130.445 172.653 127.388 173.381 123.158L187.544 40.9182L31.2181 123.989Z" fill="#E8AE29"/>
<path d="M37.777 127.256L83.8036 144.714C86.1827 145.616 88.5938 143.469 87.9725 141.002L84.7991 128.399L37.777 127.256Z" fill="#DA5113"/>
<path d="M129.048 136.556L164.268 137.572L169.574 149.678L129.048 136.556Z" fill="#E8AE29"/>
<path d="M126.153 145.298L139.662 157.114L132.907 168.932L126.153 145.298Z" fill="#DA5113"/>
<path d="M65.3632 32.8597L122.776 22.7035L109.267 12.1238L65.3632 32.8597Z" fill="#F2D23B"/>
<path d="M59.0914 29.4987L78.8718 15.0048L74.0473 0.0682373L59.0914 29.4987Z" fill="#DA5113"/>
<path d="M178.164 21.5824L188.008 8.40271L194.808 16.9666L178.164 21.5824Z" fill="#F2D23B"/>
<path d="M180.817 23.5602L208.192 19.537L203.975 26.046L180.817 23.5602Z" fill="#E8AE29"/>
<path d="M21.3985 134.84L14.8208 138.242L19.094 146.506C20.2761 148.791 23.0867 149.686 25.3723 148.504C26.7198 147.807 27.2471 146.15 26.5501 144.802L21.3985 134.84Z" fill="#9099D5"/>
<path d="M19.9955 136.96L17.2685 138.371C15.6287 139.218 13.6119 138.577 12.7636 136.937L12.239 135.923C12.0501 135.558 12.193 135.109 12.5586 134.92L19.901 131.123C20.2662 130.934 20.7155 131.077 20.9044 131.442L21.4289 132.456C22.2773 134.095 21.6353 136.112 19.9955 136.96Z" fill="#222C72"/>
<path d="M3.51491 125.675L8.37189 135.067C8.85411 135.999 9.94357 136.435 10.9386 136.101C21.8247 132.449 32.5868 130.818 43.2266 131.187L26.8255 99.4742C20.9778 108.37 13.4272 116.21 4.15411 122.983C3.3067 123.602 3.03316 124.743 3.51491 125.675Z" fill="#BFC7FC"/>
<path d="M7.23584 132.87L8.37183 135.066C8.85405 135.998 9.94351 136.435 10.9385 136.101C21.8246 132.448 32.5867 130.817 43.2266 131.187L40.5438 125.999C29.747 126.534 18.7424 128.79 7.52677 132.785C7.42995 132.82 7.33313 132.847 7.23584 132.87Z" fill="#9099D5"/>
<path d="M4.21285 127.008L2.99461 127.638C1.01074 128.664 0.2343 131.104 1.26031 133.088C2.28632 135.072 4.72656 135.849 6.71043 134.823L7.92867 134.192L4.21285 127.008Z" fill="#2D3DA3"/>
<path d="M2.02271 134.117C3.23578 135.307 5.11907 135.646 6.71049 134.823L7.92873 134.192L6.65174 131.723L2.02271 134.117Z" fill="#222C72"/>
<path d="M43.2292 131.178C45.8504 129.823 44.3035 121.625 39.7742 112.868C35.245 104.111 29.4484 98.1111 26.8272 99.4669C24.206 100.823 25.7529 109.02 30.2822 117.777C34.8115 126.534 40.608 132.534 43.2292 131.178Z" fill="#1B2252"/>
<path d="M37.5157 116.171L35.7795 112.813C35.607 112.48 35.2178 112.324 34.862 112.443C32.7165 113.163 30.5841 113.663 28.4653 113.944C29.0021 115.199 29.6079 116.485 30.28 117.785C30.9521 119.085 31.6519 120.323 32.3654 121.486C33.82 119.919 35.4594 118.468 37.2872 117.133C37.5899 116.912 37.6877 116.503 37.5157 116.171Z" fill="#DA5113"/>
<path d="M35.3941 116.605C32.9595 117.281 30.8816 115.782 29.7122 113.751C29.2958 113.823 28.8799 113.889 28.4648 113.944C29.0016 115.199 29.6074 116.485 30.2795 117.785C30.9516 119.085 31.6514 120.323 32.3649 121.486C33.8196 119.919 35.4589 118.468 37.2867 117.133C37.5894 116.911 37.6877 116.503 37.5152 116.17L37.2595 115.675C36.6941 116.087 36.0788 116.415 35.3941 116.605Z" fill="#A43F0F"/>
<path d="M40.8842 130.97C39.7388 130.416 38.4087 129.316 37.0076 127.787C34.7906 125.368 32.3969 121.878 30.28 117.784C28.1632 113.691 26.6982 109.72 26.0054 106.513C25.5678 104.486 25.4386 102.765 25.6487 101.51C25.8174 100.502 26.2042 99.7947 26.826 99.4733L23.3062 101.294C20.685 102.649 22.2313 110.847 26.7607 119.604C31.2896 128.362 37.0861 134.362 39.7073 133.006L43.2271 131.186C42.6044 131.508 41.804 131.415 40.8842 130.97Z" fill="#2D3DA3"/>
<path d="M40.8841 130.97C39.7387 130.416 38.4086 129.316 37.0075 127.788C36.3749 127.097 35.7277 126.317 35.0772 125.463C33.8595 126.01 32.6407 126.554 31.4357 127.125C34.7285 131.49 37.9395 133.921 39.7067 133.007L43.2266 131.187C42.6043 131.509 41.8039 131.415 40.8841 130.97Z" fill="#222C72"/>
<path d="M41.3118 110.78L52.3868 102.441L53.3109 107.98L41.3118 110.78Z" fill="#DA5113"/>
<path d="M39.1165 102.936L44.998 90.3821L48.4079 94.8428L39.1165 102.936Z" fill="#DA5113"/>
<path d="M46.6093 117.728L60.0165 114.201L58.7761 119.677L46.6093 117.728Z" fill="#DA5113"/>
<path d="M71.7842 96.2564C70.8775 96.2564 70.0348 96.1124 69.2561 95.8244C68.4881 95.5364 67.8214 95.131 67.2561 94.6083C66.6907 94.075 66.248 93.451 65.928 92.7363C65.6187 92.0216 65.464 91.2429 65.464 90.4002C65.464 89.5469 65.6187 88.7682 65.928 88.0642C66.248 87.3495 66.6907 86.7308 67.2561 86.2081C67.8214 85.6748 68.4881 85.2641 69.2561 84.9761C70.0348 84.6881 70.8775 84.5441 71.7842 84.5441C72.7015 84.5441 73.5442 84.6881 74.3122 84.9761C75.0802 85.2641 75.7469 85.6748 76.3123 86.2081C76.8776 86.7308 77.315 87.3495 77.6243 88.0642C77.9443 88.7682 78.1043 89.5469 78.1043 90.4002C78.1043 91.2429 77.9443 92.0216 77.6243 92.7363C77.315 93.451 76.8776 94.075 76.3123 94.6083C75.7469 95.131 75.0802 95.5364 74.3122 95.8244C73.5442 96.1124 72.7015 96.2564 71.7842 96.2564ZM75.4482 98.8324C74.9256 98.8324 74.4402 98.7791 73.9922 98.6724C73.5442 98.5764 73.1069 98.4111 72.6802 98.1764C72.2642 97.9417 71.8268 97.6164 71.3681 97.2004C70.9095 96.7951 70.3975 96.2884 69.8321 95.6804L73.7362 94.7203C73.9922 95.115 74.2109 95.419 74.3922 95.6324C74.5736 95.8457 74.7496 95.995 74.9202 96.0804C75.1016 96.1657 75.3042 96.2084 75.5282 96.2084C76.0829 96.2084 76.6003 95.9684 77.0803 95.4884L78.7123 97.4084C77.9123 98.3578 76.8243 98.8324 75.4482 98.8324ZM71.7842 93.2003C72.1362 93.2003 72.4615 93.1363 72.7602 93.0083C73.0695 92.8803 73.3362 92.699 73.5602 92.4643C73.7949 92.2189 73.9762 91.9256 74.1042 91.5843C74.2322 91.2323 74.2962 90.8376 74.2962 90.4002C74.2962 89.9629 74.2322 89.5736 74.1042 89.2322C73.9762 88.8802 73.7949 88.5869 73.5602 88.3522C73.3362 88.1069 73.0695 87.9202 72.7602 87.7922C72.4615 87.6642 72.1362 87.6002 71.7842 87.6002C71.4321 87.6002 71.1015 87.6642 70.7921 87.7922C70.4935 87.9202 70.2268 88.1069 69.9921 88.3522C69.7681 88.5869 69.5921 88.8802 69.4641 89.2322C69.3361 89.5736 69.2721 89.9629 69.2721 90.4002C69.2721 90.8376 69.3361 91.2323 69.4641 91.5843C69.5921 91.9256 69.7681 92.2189 69.9921 92.4643C70.2268 92.699 70.4935 92.8803 70.7921 93.0083C71.1015 93.1363 71.4321 93.2003 71.7842 93.2003ZM83.0109 96.1604C82.3176 96.1604 81.6882 96.0217 81.1229 95.7444C80.5682 95.4564 80.1308 95.0137 79.8108 94.4163C79.4908 93.8083 79.3308 93.0296 79.3308 92.0803V87.2482H82.9469V91.4563C82.9469 92.0749 83.0483 92.507 83.2509 92.7523C83.4536 92.9976 83.7309 93.1203 84.0829 93.1203C84.2963 93.1203 84.4936 93.067 84.675 92.9603C84.867 92.843 85.0216 92.6563 85.139 92.4003C85.2563 92.1336 85.315 91.7869 85.315 91.3603V87.2482H88.9311V96.0004H85.491V93.4723L86.179 94.1603C85.8696 94.843 85.427 95.3497 84.851 95.6804C84.2856 96.0004 83.6723 96.1604 83.0109 96.1604ZM95.8311 96.0004V94.4483L95.5751 94.0323V91.0883C95.5751 90.6616 95.4417 90.3362 95.1751 90.1122C94.9191 89.8882 94.4977 89.7762 93.911 89.7762C93.5164 89.7762 93.1164 89.8402 92.711 89.9682C92.3057 90.0856 91.959 90.2509 91.671 90.4642L90.519 88.0802C91.031 87.7602 91.6443 87.5148 92.359 87.3442C93.0737 87.1735 93.7724 87.0882 94.4551 87.0882C95.9591 87.0882 97.1218 87.4242 97.9431 88.0962C98.7752 88.7682 99.1912 89.8349 99.1912 91.2963V96.0004H95.8311ZM93.351 96.1604C92.6363 96.1604 92.039 96.0377 91.559 95.7924C91.079 95.547 90.7163 95.2217 90.471 94.8163C90.2256 94.4003 90.103 93.9417 90.103 93.4403C90.103 92.875 90.247 92.395 90.535 92.0003C90.823 91.6056 91.2603 91.3069 91.847 91.1043C92.4443 90.9016 93.1964 90.8002 94.103 90.8002H95.9271V92.5443H94.6791C94.2951 92.5443 94.0124 92.6083 93.831 92.7363C93.6604 92.8536 93.575 93.035 93.575 93.2803C93.575 93.483 93.6497 93.6536 93.799 93.7923C93.959 93.9203 94.1724 93.9843 94.4391 93.9843C94.6844 93.9843 94.9084 93.9203 95.1111 93.7923C95.3244 93.6536 95.4791 93.4403 95.5751 93.1523L96.0391 94.2243C95.9004 94.875 95.6071 95.3604 95.1591 95.6804C94.7111 96.0004 94.1084 96.1604 93.351 96.1604ZM106.834 87.0882C107.506 87.0882 108.114 87.2268 108.658 87.5042C109.202 87.7708 109.629 88.1922 109.938 88.7682C110.258 89.3442 110.418 90.0909 110.418 91.0083V96.0004H106.802V91.6323C106.802 91.0883 106.706 90.7042 106.514 90.4802C106.322 90.2456 106.061 90.1282 105.73 90.1282C105.485 90.1282 105.255 90.1869 105.042 90.3042C104.839 90.4109 104.674 90.5922 104.546 90.8483C104.429 91.1043 104.37 91.4509 104.37 91.8883V96.0004H100.754V87.2482H104.194V89.8082L103.506 89.0722C103.847 88.4109 104.306 87.9148 104.882 87.5842C105.469 87.2535 106.119 87.0882 106.834 87.0882ZM121.01 96.1604C119.804 96.1604 118.866 95.8724 118.194 95.2964C117.522 94.7097 117.186 93.8137 117.186 92.6083V85.2801H120.802V92.5763C120.802 92.843 120.871 93.051 121.01 93.2003C121.159 93.3496 121.34 93.4243 121.554 93.4243C121.863 93.4243 122.135 93.3443 122.37 93.1843L123.234 95.6964C122.956 95.8564 122.62 95.9737 122.226 96.0484C121.842 96.123 121.436 96.1604 121.01 96.1604ZM115.986 90.3682V87.7282H122.594V90.3682H115.986ZM124.145 96.0004V87.2482H127.585V89.8882L127.025 89.1362C127.292 88.4535 127.719 87.9415 128.305 87.6002C128.892 87.2588 129.596 87.0882 130.417 87.0882V90.2882C130.257 90.2669 130.113 90.2509 129.985 90.2402C129.868 90.2296 129.745 90.2242 129.617 90.2242C129.073 90.2242 128.625 90.3682 128.273 90.6562C127.932 90.9336 127.761 91.4189 127.761 92.1123V96.0004H124.145ZM135.988 96.1604C134.996 96.1604 134.116 95.9684 133.348 95.5844C132.591 95.1897 131.993 94.651 131.556 93.9683C131.119 93.2856 130.9 92.5016 130.9 91.6163C130.9 90.7309 131.119 89.9469 131.556 89.2642C131.993 88.5815 132.591 88.0482 133.348 87.6642C134.116 87.2802 134.996 87.0882 135.988 87.0882C136.98 87.0882 137.86 87.2802 138.628 87.6642C139.396 88.0482 139.994 88.5815 140.42 89.2642C140.858 89.9469 141.076 90.7309 141.076 91.6163C141.076 92.5016 140.858 93.2856 140.42 93.9683C139.994 94.651 139.396 95.1897 138.628 95.5844C137.86 95.9684 136.98 96.1604 135.988 96.1604ZM135.988 93.3443C136.255 93.3443 136.495 93.2803 136.708 93.1523C136.921 93.0243 137.092 92.8323 137.22 92.5763C137.348 92.3096 137.412 91.9896 137.412 91.6163C137.412 91.2323 137.348 90.9176 137.22 90.6722C137.092 90.4162 136.921 90.2242 136.708 90.0962C136.495 89.9682 136.255 89.9042 135.988 89.9042C135.721 89.9042 135.481 89.9682 135.268 90.0962C135.055 90.2242 134.884 90.4162 134.756 90.6722C134.628 90.9176 134.564 91.2323 134.564 91.6163C134.564 91.9896 134.628 92.3096 134.756 92.5763C134.884 92.8323 135.055 93.0243 135.268 93.1523C135.481 93.2803 135.721 93.3443 135.988 93.3443ZM135.94 99.6165C135.535 99.6165 135.193 99.4885 134.916 99.2324C134.639 98.9871 134.5 98.6511 134.5 98.2244C134.5 97.7977 134.639 97.4511 134.916 97.1844C135.193 96.9284 135.535 96.8004 135.94 96.8004C136.345 96.8004 136.687 96.9284 136.964 97.1844C137.242 97.4511 137.38 97.7977 137.38 98.2244C137.38 98.6511 137.242 98.9871 136.964 99.2324C136.687 99.4885 136.345 99.6165 135.94 99.6165ZM148.288 87.0882C148.96 87.0882 149.568 87.2268 150.112 87.5042C150.656 87.7708 151.083 88.1922 151.392 88.7682C151.712 89.3442 151.872 90.0909 151.872 91.0083V96.0004H148.256V91.6323C148.256 91.0883 148.16 90.7042 147.968 90.4802C147.776 90.2456 147.515 90.1282 147.184 90.1282C146.939 90.1282 146.709 90.1869 146.496 90.3042C146.293 90.4109 146.128 90.5922 146 90.8483C145.883 91.1043 145.824 91.4509 145.824 91.8883V96.0004H142.208V87.2482H145.648V89.8082L144.96 89.0722C145.301 88.4109 145.76 87.9148 146.336 87.5842C146.923 87.2535 147.573 87.0882 148.288 87.0882ZM158.047 99.2644C157.183 99.2644 156.372 99.1738 155.615 98.9924C154.858 98.8111 154.207 98.5391 153.663 98.1764L154.879 95.7124C155.22 95.979 155.652 96.187 156.175 96.3364C156.708 96.4964 157.21 96.5764 157.679 96.5764C158.426 96.5764 158.959 96.4164 159.279 96.0964C159.599 95.787 159.759 95.339 159.759 94.7523V94.0163L159.919 91.2963L159.935 88.5762V87.2482H163.375V94.2563C163.375 95.9524 162.906 97.2111 161.967 98.0324C161.028 98.8538 159.722 99.2644 158.047 99.2644ZM157.343 95.5204C156.607 95.5204 155.919 95.3497 155.279 95.0083C154.639 94.6563 154.122 94.1657 153.727 93.5363C153.332 92.907 153.135 92.1603 153.135 91.2963C153.135 90.4322 153.332 89.6856 153.727 89.0562C154.122 88.4269 154.639 87.9415 155.279 87.6002C155.919 87.2588 156.607 87.0882 157.343 87.0882C158.1 87.0882 158.719 87.2375 159.199 87.5362C159.69 87.8348 160.052 88.2989 160.287 88.9282C160.522 89.5469 160.639 90.3362 160.639 91.2963C160.639 92.2563 160.522 93.051 160.287 93.6803C160.052 94.299 159.69 94.763 159.199 95.0723C158.719 95.371 158.1 95.5204 157.343 95.5204ZM158.303 92.7043C158.591 92.7043 158.847 92.6456 159.071 92.5283C159.295 92.411 159.471 92.2456 159.599 92.0323C159.727 91.8189 159.791 91.5736 159.791 91.2963C159.791 91.0083 159.727 90.7629 159.599 90.5602C159.471 90.3469 159.295 90.1869 159.071 90.0802C158.847 89.9629 158.591 89.9042 158.303 89.9042C158.026 89.9042 157.77 89.9629 157.535 90.0802C157.311 90.1869 157.13 90.3469 156.991 90.5602C156.863 90.7629 156.799 91.0083 156.799 91.2963C156.799 91.5736 156.863 91.8189 156.991 92.0323C157.13 92.2456 157.311 92.411 157.535 92.5283C157.77 92.6456 158.026 92.7043 158.303 92.7043Z" fill="#1B2252"/>
<path d="M68.3441 73.0004V64.7282H65.064V61.8001H75.4002V64.7282H72.1202V73.0004H68.3441ZM82.3492 64.0882C83.0212 64.0882 83.6292 64.2268 84.1732 64.5042C84.7172 64.7708 85.1439 65.1922 85.4532 65.7682C85.7732 66.3442 85.9332 67.0909 85.9332 68.0083V73.0004H82.3172V68.6323C82.3172 68.0883 82.2211 67.7042 82.0291 67.4802C81.8371 67.2456 81.5758 67.1282 81.2451 67.1282C80.9998 67.1282 80.7704 67.1869 80.5571 67.3042C80.3544 67.4109 80.1891 67.5922 80.0611 67.8483C79.9438 68.1043 79.8851 68.4509 79.8851 68.8883V73.0004H76.269V61.1281H79.8851V66.8082L79.0211 66.0722C79.3624 65.4109 79.8211 64.9148 80.3971 64.5842C80.9838 64.2535 81.6345 64.0882 82.3492 64.0882ZM92.284 73.1604C91.292 73.1604 90.412 72.9684 89.6439 72.5844C88.8866 72.1897 88.2892 71.651 87.8519 70.9683C87.4146 70.2856 87.1959 69.5016 87.1959 68.6163C87.1959 67.7309 87.4146 66.9469 87.8519 66.2642C88.2892 65.5815 88.8866 65.0482 89.6439 64.6642C90.412 64.2802 91.292 64.0882 92.284 64.0882C93.276 64.0882 94.156 64.2802 94.9241 64.6642C95.6921 65.0482 96.2894 65.5815 96.7161 66.2642C97.1535 66.9469 97.3721 67.7309 97.3721 68.6163C97.3721 69.5016 97.1535 70.2856 96.7161 70.9683C96.2894 71.651 95.6921 72.1897 94.9241 72.5844C94.156 72.9684 93.276 73.1604 92.284 73.1604ZM92.284 70.3443C92.5507 70.3443 92.7907 70.2803 93.004 70.1523C93.2174 70.0243 93.388 69.8323 93.516 69.5763C93.644 69.3096 93.708 68.9896 93.708 68.6163C93.708 68.2323 93.644 67.9176 93.516 67.6722C93.388 67.4162 93.2174 67.2242 93.004 67.0962C92.7907 66.9682 92.5507 66.9042 92.284 66.9042C92.0173 66.9042 91.7773 66.9682 91.564 67.0962C91.3507 67.2242 91.18 67.4162 91.052 67.6722C90.924 67.9176 90.86 68.2323 90.86 68.6163C90.86 68.9896 90.924 69.3096 91.052 69.5763C91.18 69.8323 91.3507 70.0243 91.564 70.1523C91.7773 70.2803 92.0173 70.3443 92.284 70.3443ZM88.6519 63.2881L90.7 60.7281H93.772L95.8201 63.2881H93.58L91.308 61.2081H93.164L90.892 63.2881H88.6519ZM104.584 64.0882C105.256 64.0882 105.864 64.2268 106.408 64.5042C106.952 64.7708 107.379 65.1922 107.688 65.7682C108.008 66.3442 108.168 67.0909 108.168 68.0083V73.0004H104.552V68.6323C104.552 68.0883 104.456 67.7042 104.264 67.4802C104.072 67.2456 103.811 67.1282 103.48 67.1282C103.235 67.1282 103.005 67.1869 102.792 67.3042C102.589 67.4109 102.424 67.5922 102.296 67.8483C102.179 68.1043 102.12 68.4509 102.12 68.8883V73.0004H98.5039V64.2482H101.944V66.8082L101.256 66.0722C101.597 65.4109 102.056 64.9148 102.632 64.5842C103.219 64.2535 103.869 64.0882 104.584 64.0882ZM114.343 76.2644C113.479 76.2644 112.668 76.1738 111.911 75.9924C111.153 75.8111 110.503 75.5391 109.959 75.1764L111.175 72.7124C111.516 72.979 111.948 73.187 112.471 73.3364C113.004 73.4964 113.506 73.5764 113.975 73.5764C114.722 73.5764 115.255 73.4164 115.575 73.0964C115.895 72.787 116.055 72.339 116.055 71.7523V71.0163L116.215 68.2963L116.231 65.5762V64.2482H119.671V71.2563C119.671 72.9524 119.202 74.2111 118.263 75.0324C117.324 75.8538 116.018 76.2644 114.343 76.2644ZM113.639 72.5204C112.903 72.5204 112.215 72.3497 111.575 72.0083C110.935 71.6563 110.417 71.1657 110.023 70.5363C109.628 69.907 109.431 69.1603 109.431 68.2963C109.431 67.4322 109.628 66.6856 110.023 66.0562C110.417 65.4269 110.935 64.9415 111.575 64.6002C112.215 64.2588 112.903 64.0882 113.639 64.0882C114.396 64.0882 115.015 64.2375 115.495 64.5362C115.986 64.8348 116.348 65.2989 116.583 65.9282C116.818 66.5469 116.935 67.3362 116.935 68.2963C116.935 69.2563 116.818 70.051 116.583 70.6803C116.348 71.299 115.986 71.763 115.495 72.0723C115.015 72.371 114.396 72.5204 113.639 72.5204ZM114.599 69.7043C114.887 69.7043 115.143 69.6456 115.367 69.5283C115.591 69.411 115.767 69.2456 115.895 69.0323C116.023 68.8189 116.087 68.5736 116.087 68.2963C116.087 68.0083 116.023 67.7629 115.895 67.5602C115.767 67.3469 115.591 67.1869 115.367 67.0802C115.143 66.9629 114.887 66.9042 114.599 66.9042C114.322 66.9042 114.066 66.9629 113.831 67.0802C113.607 67.1869 113.426 67.3469 113.287 67.5602C113.159 67.7629 113.095 68.0083 113.095 68.2963C113.095 68.5736 113.159 68.8189 113.287 69.0323C113.426 69.2456 113.607 69.411 113.831 69.5283C114.066 69.6456 114.322 69.7043 114.599 69.7043ZM131.907 73.1604C131.107 73.1604 130.462 73.0004 129.971 72.6804C129.48 72.3604 129.123 71.8643 128.899 71.1923C128.686 70.5203 128.579 69.6616 128.579 68.6163C128.579 67.5816 128.696 66.7336 128.931 66.0722C129.166 65.4002 129.528 64.9042 130.019 64.5842C130.52 64.2535 131.15 64.0882 131.907 64.0882C132.675 64.0882 133.379 64.2695 134.019 64.6322C134.659 64.9949 135.171 65.5175 135.555 66.2002C135.939 66.8722 136.131 67.6776 136.131 68.6163C136.131 69.555 135.939 70.3656 135.555 71.0483C135.171 71.7203 134.659 72.243 134.019 72.6164C133.379 72.979 132.675 73.1604 131.907 73.1604ZM126.067 73.0004V61.1281H129.683V65.4162L129.523 68.6163L129.507 71.8163V73.0004H126.067ZM131.043 70.3443C131.31 70.3443 131.55 70.2803 131.763 70.1523C131.977 70.0243 132.147 69.8323 132.275 69.5763C132.403 69.3096 132.467 68.9896 132.467 68.6163C132.467 68.2323 132.403 67.9176 132.275 67.6722C132.147 67.4162 131.977 67.2242 131.763 67.0962C131.55 66.9682 131.31 66.9042 131.043 66.9042C130.776 66.9042 130.536 66.9682 130.323 67.0962C130.11 67.2242 129.939 67.4162 129.811 67.6722C129.683 67.9176 129.619 68.2323 129.619 68.6163C129.619 68.9896 129.683 69.3096 129.811 69.5763C129.939 69.8323 130.11 70.0243 130.323 70.1523C130.536 70.2803 130.776 70.3443 131.043 70.3443ZM142.348 73.0004V71.4483L142.092 71.0323V68.0883C142.092 67.6616 141.958 67.3362 141.692 67.1122C141.436 66.8882 141.014 66.7762 140.428 66.7762C140.033 66.7762 139.633 66.8402 139.228 66.9682C138.822 67.0856 138.476 67.2509 138.188 67.4642L137.036 65.0802C137.548 64.7602 138.161 64.5148 138.876 64.3442C139.59 64.1735 140.289 64.0882 140.972 64.0882C142.476 64.0882 143.638 64.4242 144.46 65.0962C145.292 65.7682 145.708 66.8349 145.708 68.2963V73.0004H142.348ZM139.868 73.1604C139.153 73.1604 138.556 73.0377 138.076 72.7924C137.596 72.547 137.233 72.2217 136.988 71.8163C136.742 71.4003 136.62 70.9417 136.62 70.4403C136.62 69.875 136.764 69.395 137.052 69.0003C137.34 68.6056 137.777 68.3069 138.364 68.1043C138.961 67.9016 139.713 67.8002 140.62 67.8002H142.444V69.5443H141.196C140.812 69.5443 140.529 69.6083 140.348 69.7363C140.177 69.8536 140.092 70.035 140.092 70.2803C140.092 70.483 140.166 70.6536 140.316 70.7923C140.476 70.9203 140.689 70.9843 140.956 70.9843C141.201 70.9843 141.425 70.9203 141.628 70.7923C141.841 70.6536 141.996 70.4403 142.092 70.1523L142.556 71.2243C142.417 71.875 142.124 72.3604 141.676 72.6804C141.228 73.0004 140.625 73.1604 139.868 73.1604ZM139.708 63.2881L141.82 60.7281H145.26L142.108 63.2881H139.708ZM152.051 73.1604C151.059 73.1604 150.179 72.9684 149.411 72.5844C148.654 72.1897 148.056 71.651 147.619 70.9683C147.182 70.2856 146.963 69.5016 146.963 68.6163C146.963 67.7309 147.182 66.9469 147.619 66.2642C148.056 65.5815 148.654 65.0482 149.411 64.6642C150.179 64.2802 151.059 64.0882 152.051 64.0882C153.043 64.0882 153.923 64.2802 154.691 64.6642C155.459 65.0482 156.056 65.5815 156.483 66.2642C156.92 66.9469 157.139 67.7309 157.139 68.6163C157.139 69.5016 156.92 70.2856 156.483 70.9683C156.056 71.651 155.459 72.1897 154.691 72.5844C153.923 72.9684 153.043 73.1604 152.051 73.1604ZM152.051 70.3443C152.318 70.3443 152.558 70.2803 152.771 70.1523C152.984 70.0243 153.155 69.8323 153.283 69.5763C153.411 69.3096 153.475 68.9896 153.475 68.6163C153.475 68.2323 153.411 67.9176 153.283 67.6722C153.155 67.4162 152.984 67.2242 152.771 67.0962C152.558 66.9682 152.318 66.9042 152.051 66.9042C151.784 66.9042 151.544 66.9682 151.331 67.0962C151.118 67.2242 150.947 67.4162 150.819 67.6722C150.691 67.9176 150.627 68.2323 150.627 68.6163C150.627 68.9896 150.691 69.3096 150.819 69.5763C150.947 69.8323 151.118 70.0243 151.331 70.1523C151.544 70.2803 151.784 70.3443 152.051 70.3443Z" fill="#1B2252"/>
<path d="M196.422 37.6805C198.846 37.6805 198.846 33.9205 196.422 33.9205C193.997 33.9205 193.997 37.6805 196.422 37.6805Z" fill="#DA5113"/>
<path d="M161.025 21.4171C163.45 21.4171 163.45 17.6571 161.025 17.6571C158.6 17.6571 158.6 21.4171 161.025 21.4171Z" fill="#DA5113"/>
<path d="M47.1821 31.9404C49.6068 31.9404 49.6068 28.1804 47.1821 28.1804C44.7573 28.1804 44.7573 31.9404 47.1821 31.9404Z" fill="#DA5113"/>
<path d="M106.495 140.044C108.92 140.044 108.92 136.284 106.495 136.284C104.07 136.284 104.07 140.044 106.495 140.044Z" fill="#DA5113"/>
<path d="M54.3571 147.219C56.7819 147.219 56.7819 143.459 54.3571 143.459C51.9324 143.459 51.9324 147.219 54.3571 147.219Z" fill="#DA5113"/>
<path d="M14.6557 100.342C17.0804 100.342 17.0804 96.5818 14.6557 96.5818C12.231 96.5818 12.231 100.342 14.6557 100.342Z" fill="#DA5113"/>
<path d="M195.943 74.5121C198.368 74.5121 198.368 70.7521 195.943 70.7521C193.518 70.7521 193.518 74.5121 195.943 74.5121Z" fill="#DA5113"/>
<path d="M188.768 129.52C191.193 129.52 191.193 125.76 188.768 125.76C186.344 125.76 186.344 129.52 188.768 129.52Z" fill="#DA5113"/>
<path d="M171.548 62.0754C173.973 62.0754 173.973 58.3154 171.548 58.3154C169.124 58.3154 169.124 62.0754 171.548 62.0754Z" fill="#DA5113"/>
<path d="M29.9622 52.9871C32.387 52.9871 32.387 49.2271 29.9622 49.2271C27.5375 49.2271 27.5375 52.9871 29.9622 52.9871Z" fill="#DA5113"/>
<path d="M142.849 27.8871C144.364 27.8871 144.364 25.5371 142.849 25.5371C141.333 25.5371 141.333 27.8871 142.849 27.8871Z" fill="#E8AE29"/>
<path d="M196.9 54.6739C198.415 54.6739 198.415 52.3239 196.9 52.3239C195.384 52.3239 195.384 54.6739 196.9 54.6739Z" fill="#E8AE29"/>
<path d="M31.3972 38.4104C32.9125 38.4104 32.9125 36.0604 31.3972 36.0604C29.8819 36.0604 29.8819 38.4104 31.3972 38.4104Z" fill="#E8AE29"/>
<path d="M14.6558 76.6769C16.1711 76.6769 16.1711 74.3269 14.6558 74.3269C13.1405 74.3269 13.1401 76.6769 14.6558 76.6769Z" fill="#E8AE29"/>
<path d="M163.895 123.554C165.411 123.554 165.411 121.204 163.895 121.204C162.38 121.204 162.38 123.554 163.895 123.554Z" fill="#E8AE29"/>
<path d="M179.68 39.8454C181.196 39.8454 181.196 37.4954 179.68 37.4954C178.165 37.4954 178.165 39.8454 179.68 39.8454Z" fill="#E8AE29"/>
<path d="M180.637 141.252C182.152 141.252 182.152 138.902 180.637 138.902C179.121 138.902 179.121 141.252 180.637 141.252Z" fill="#E8AE29"/>
<path d="M109.843 148.905C111.359 148.905 111.359 146.555 109.843 146.555C108.328 146.555 108.328 148.905 109.843 148.905Z" fill="#E8AE29"/>
<path d="M119.889 133.599C121.404 133.599 121.404 131.249 119.889 131.249C118.373 131.249 118.373 133.599 119.889 133.599Z" fill="#E8AE29"/>
<path d="M68.7071 155.124C70.2224 155.124 70.2224 152.774 68.7071 152.774C67.1919 152.774 67.1919 155.124 68.7071 155.124Z" fill="#E8AE29"/>
<path d="M40.964 139.817C42.4792 139.817 42.4792 137.467 40.964 137.467C39.4482 137.467 39.4482 139.817 40.964 139.817Z" fill="#E8AE29"/>
<path d="M8.91563 112.074C10.4309 112.074 10.4309 109.724 8.91563 109.724C7.40035 109.724 7.40035 112.074 8.91563 112.074Z" fill="#E8AE29"/>
<path d="M10.3506 53.7174C11.8659 53.7174 11.8659 51.3674 10.3506 51.3674C8.83529 51.3674 8.83529 53.7174 10.3506 53.7174Z" fill="#E8AE29"/>
<path d="M38.5721 66.632C40.0874 66.632 40.0874 64.282 38.5721 64.282C37.0568 64.282 37.0568 66.632 38.5721 66.632Z" fill="#E8AE29"/>
</svg>
