<svg width="30" height="30" viewBox="0 0 30 30" fill="none" xmlns="http://www.w3.org/2000/svg">
<path d="M14.1176 16.4706V18.8236C12.2455 18.8236 10.45 19.5673 9.12623 20.8911C7.80245 22.2148 7.05875 24.0103 7.05875 25.8824H4.70581C4.70581 23.3862 5.6974 20.9923 7.46245 19.2273C9.2275 17.4622 11.6214 16.4706 14.1176 16.4706ZM14.1176 15.2942C10.2176 15.2942 7.05875 12.1353 7.05875 8.23534C7.05875 4.33534 10.2176 1.17651 14.1176 1.17651C18.0176 1.17651 21.1764 4.33534 21.1764 8.23534C21.1764 12.1353 18.0176 15.2942 14.1176 15.2942ZM14.1176 12.9412C16.7176 12.9412 18.8235 10.8353 18.8235 8.23534C18.8235 5.63534 16.7176 3.52945 14.1176 3.52945C11.5176 3.52945 9.41169 5.63534 9.41169 8.23534C9.41169 10.8353 11.5176 12.9412 14.1176 12.9412ZM17.1705 22.1318C17.0213 21.5041 17.0213 20.8501 17.1705 20.2224L16.0035 19.5483L17.1799 17.5106L18.347 18.1847C18.8154 17.7411 19.3816 17.4138 19.9999 17.2295V15.8824H22.3529V17.2295C22.9788 17.4153 23.5435 17.7471 24.0058 18.1847L25.1729 17.5106L26.3493 19.5483L25.1823 20.2224C25.3313 20.8498 25.3313 21.5033 25.1823 22.1306L26.3493 22.8048L25.1729 24.8424L24.0058 24.1683C23.5374 24.6119 22.9712 24.9392 22.3529 25.1236V26.4706H19.9999V25.1236C19.3816 24.9392 18.8154 24.6119 18.347 24.1683L17.1799 24.8424L16.0035 22.8048L17.1705 22.1318ZM21.1764 22.9412C21.6444 22.9412 22.0933 22.7553 22.4242 22.4243C22.7552 22.0934 22.9411 21.6445 22.9411 21.1765C22.9411 20.7085 22.7552 20.2596 22.4242 19.9287C22.0933 19.5977 21.6444 19.4118 21.1764 19.4118C20.7084 19.4118 20.2595 19.5977 19.9286 19.9287C19.5976 20.2596 19.4117 20.7085 19.4117 21.1765C19.4117 21.6445 19.5976 22.0934 19.9286 22.4243C20.2595 22.7553 20.7084 22.9412 21.1764 22.9412Z" fill="#007CC2"/>
</svg>
